<svg width="195" height="53" viewBox="0 0 195 53" fill="none" xmlns="http://www.w3.org/2000/svg">
<g opacity="0.6" clip-path="url(#clip0_3541_4851)">
<path d="M14.5598 38.9365C13.2183 38.8201 11.8175 38.6551 10.3576 38.4417C8.89765 38.2283 7.55609 37.9761 6.3329 37.6851C5.10971 37.3941 4.10354 37.0546 3.31439 36.6666C2.52523 36.2786 2.13066 35.8518 2.13066 35.3862C2.13066 34.9206 2.41672 34.552 2.98886 34.2804C3.561 34.0088 4.20219 33.7954 4.91242 33.6402C5.70158 33.485 6.62883 33.3686 7.69419 33.291C8.40443 33.291 9.11467 33.3589 9.82491 33.4947C10.5351 33.6305 11.2454 33.6984 11.9556 33.6984C15.7436 34.2028 19.6006 34.5326 23.5266 34.6878C27.4526 34.843 31.3688 34.649 35.2751 34.1058C36.1037 33.9894 37.0902 33.8245 38.2345 33.6111C39.3787 33.3977 40.4836 33.0873 41.5489 32.6799C42.6143 32.2725 43.5218 31.7487 44.2715 31.1084C45.0212 30.4682 45.4355 29.6825 45.5144 28.7513C45.5144 27.8977 45.2185 27.112 44.6266 26.3942C44.0347 25.6764 43.3048 25.0556 42.4367 24.5318C41.5686 24.008 40.6512 23.5714 39.6845 23.2222C38.7178 22.873 37.8596 22.6208 37.1099 22.4656C36.1629 22.2328 35.0384 22 33.7363 21.7672C32.4342 21.5344 31.063 21.321 29.6228 21.127C28.1826 20.933 26.7029 20.7487 25.1838 20.5741C23.6647 20.3995 22.2344 20.2734 20.8928 20.1958V23.1058C20.8928 23.843 20.8533 24.7452 20.7744 25.8122C20.6955 26.8792 20.5377 27.9171 20.3009 28.9259C20.0642 29.9347 19.7288 30.798 19.2948 31.5159C18.8607 32.2337 18.3083 32.5926 17.6375 32.5926C17.4008 32.5926 17.2232 32.4762 17.1049 32.2434C16.9865 32.0106 16.8977 31.7293 16.8385 31.3995C16.7793 31.0696 16.7399 30.7204 16.7201 30.3518C16.7004 29.9832 16.6708 29.6631 16.6314 29.3915C16.3157 27.0247 16.0592 24.59 15.8619 22.0873C15.6647 19.5847 15.7238 17.0336 16.0395 14.4339C16.079 13.9295 16.1776 13.3669 16.3354 12.7461C16.4933 12.1253 16.6708 11.5336 16.8681 10.971C17.0654 10.4084 17.2627 9.94276 17.46 9.57415C17.6573 9.20555 17.8546 9.02124 18.0518 9.02124C18.328 9.02124 18.6437 9.16675 18.9988 9.45775C19.3539 9.74876 19.6795 10.1562 19.9754 10.68C20.2713 11.2038 20.5278 11.8052 20.7448 12.4842C20.9618 13.1632 21.0704 13.9101 21.0704 14.7249C21.0704 15.3457 21.0408 15.9471 20.9816 16.5292C20.9224 17.1112 20.8928 17.7126 20.8928 18.3334C21.0506 18.3722 21.2874 18.3916 21.603 18.3916H23.7929C25.5685 18.3916 27.3343 18.3334 29.0901 18.217C30.846 18.1006 32.592 17.8872 34.3281 17.5768C35.2751 17.4216 36.4095 17.1791 37.7314 16.8493C39.0532 16.5194 40.3356 16.0829 41.5785 15.5397C42.8214 14.9965 43.8769 14.3466 44.745 13.59C45.6131 12.8334 46.0471 11.9313 46.0471 10.8837C46.0471 10.2241 45.7808 9.61295 45.2481 9.05035C44.7154 8.48774 44.0643 7.99303 43.2949 7.56622C42.5255 7.13942 41.7067 6.77082 40.8387 6.46041C39.9706 6.15001 39.2209 5.9172 38.5896 5.762C37.2086 5.37399 35.7585 5.13149 34.2394 5.03449C32.7202 4.93749 31.2702 4.88899 29.8892 4.88899C25.2331 4.88899 20.5673 5.33519 15.8915 6.22761C11.2158 7.12002 6.62883 8.67204 2.13066 10.8837C1.69662 11.1553 1.23299 11.262 0.739771 11.2038C0.24655 11.1456 -6.10352e-05 10.7479 -6.10352e-05 10.0107C-6.10352e-05 8.96304 0.364923 8.02213 1.09489 7.18792C1.82486 6.35371 2.72252 5.6165 3.78788 4.97629C4.85324 4.33608 5.99751 3.80257 7.2207 3.37577C8.44389 2.94896 9.54871 2.61916 10.5351 2.38635C13.5339 1.61034 16.6807 1.01864 19.9754 0.611231C23.2701 0.203825 26.9693 0.00012207 31.0729 0.00012207C32.1777 0.0389226 33.4305 0.126223 34.8312 0.262025C36.232 0.397827 37.6623 0.62093 39.1223 0.931334C40.5822 1.24174 42.0125 1.65884 43.4133 2.18265C44.814 2.70646 46.057 3.36607 47.142 4.16148C48.2271 4.95689 49.0952 5.9075 49.7462 7.01332C50.3973 8.11913 50.7228 9.40925 50.7228 10.8837C50.7228 12.0089 50.4269 13.0662 49.835 14.0556C49.2432 15.045 48.4737 15.9471 47.5268 16.762C46.5798 17.5768 45.5341 18.2849 44.3899 18.8863C43.2456 19.4877 42.121 19.963 41.0162 20.3122C42.121 20.5838 43.2061 20.933 44.2715 21.3598C45.3368 21.7866 46.2838 22.3395 47.1124 23.0185C47.9411 23.6975 48.602 24.5124 49.0952 25.463C49.5884 26.4136 49.835 27.5291 49.835 28.8095C49.835 30.4779 49.3813 31.9039 48.4737 33.0873C47.5662 34.2707 46.4318 35.2504 45.0705 36.0264C43.7092 36.8024 42.2394 37.4135 40.6611 37.8597C39.0828 38.3059 37.6229 38.6261 36.2813 38.8201C32.809 39.4021 29.248 39.6737 25.5981 39.6349C21.9483 39.5961 18.2491 39.3633 14.5006 38.9365H14.5598ZM53.623 11.0583C53.623 10.1271 53.8794 9.47715 54.3924 9.10855C54.9053 8.73994 55.4676 8.57504 56.0792 8.61384C56.6908 8.65264 57.2235 8.86604 57.6772 9.25405C58.131 9.64206 58.2987 10.1465 58.1803 10.7673C58.1014 11.2329 57.9732 12.1447 57.7956 13.5027C57.6181 14.8607 57.4504 16.4224 57.2925 18.1879C57.1347 19.9533 56.9966 21.7866 56.8782 23.6878C56.7599 25.5891 56.6908 27.3448 56.6711 28.955C56.6513 30.5652 56.7105 31.8845 56.8486 32.9127C56.9867 33.9409 57.2531 34.455 57.6477 34.455C57.8844 34.455 58.2099 34.0282 58.6242 33.1746C59.0385 32.321 59.4528 31.351 59.8672 30.2645C60.2815 29.1781 60.6662 28.1208 61.0213 27.0926C61.3764 26.0644 61.6132 25.3951 61.7315 25.0847C61.8104 24.7355 61.988 24.5027 62.2642 24.3863C62.5404 24.2699 62.8068 24.2408 63.0632 24.299C63.3197 24.3572 63.5367 24.493 63.7143 24.7064C63.8918 24.9198 63.9214 25.2011 63.8031 25.5503C63.5663 26.3263 63.2507 27.4127 62.8561 28.8095C62.4615 30.2063 61.9683 31.5838 61.3764 32.9418C60.7845 34.2998 60.0743 35.4832 59.2457 36.492C58.4171 37.5008 57.4306 38.0052 56.2864 38.0052C55.221 38.0052 54.422 37.4523 53.8893 36.3465C53.3566 35.2407 52.9916 33.8342 52.7944 32.127C52.5971 30.4197 52.528 28.5185 52.5872 26.4233C52.6464 24.3281 52.7549 22.2813 52.9127 20.2831C53.0706 18.2849 53.2284 16.4612 53.3862 14.8122C53.5441 13.1632 53.623 11.9119 53.623 11.0583ZM61.9091 21.8254C61.9091 21.1658 62.1557 20.6711 62.6489 20.3413C63.1421 20.0115 63.6847 19.8175 64.2766 19.7593C64.8684 19.7011 65.4011 19.7787 65.8746 19.9921C66.3481 20.2055 66.5651 20.5256 66.5256 20.9524C66.4467 22.194 66.3284 23.4938 66.1705 24.8519C66.0127 26.2099 65.8549 27.4709 65.697 28.6349C65.5392 29.7989 65.4406 30.7786 65.4011 31.5741C65.3616 32.3695 65.4603 32.806 65.697 32.8836C65.8943 32.9612 66.1113 32.8157 66.3481 32.4471C66.5848 32.0785 66.8216 31.5838 67.0583 30.9629C67.2951 30.3421 67.5417 29.6437 67.7981 28.8677C68.0546 28.0917 68.3012 27.3157 68.538 26.5397C68.7747 25.7637 68.9917 25.0265 69.189 24.3281C69.3863 23.6296 69.5639 23.067 69.7217 22.6402C69.7612 22.0582 70.0275 21.6993 70.5207 21.5635C71.014 21.4277 71.5368 21.4374 72.0892 21.5926C72.6416 21.7478 73.1249 21.9806 73.5393 22.291C73.9536 22.6014 74.141 22.9312 74.1015 23.2804C73.9437 23.9789 73.7957 24.8519 73.6576 25.8995C73.5195 26.9471 73.4307 27.9559 73.3913 28.9259C73.3518 29.8959 73.3814 30.7301 73.4801 31.4286C73.5787 32.127 73.8056 32.4762 74.1607 32.4762C74.3975 32.4762 74.6835 32.1755 75.0189 31.5741C75.3543 30.9726 75.6798 30.2645 75.9955 29.4497C76.3112 28.6349 76.6071 27.8201 76.8833 27.0053C77.1595 26.1905 77.3371 25.5697 77.416 25.1429C77.4949 24.7549 77.6724 24.493 77.9486 24.3572C78.2249 24.2214 78.5011 24.1826 78.7773 24.2408C79.0535 24.299 79.2803 24.4445 79.4579 24.6773C79.6355 24.9101 79.6651 25.2011 79.5467 25.5503C79.4678 25.8607 79.3001 26.4427 79.0436 27.2963C78.7871 28.1499 78.4517 29.0811 78.0374 30.0899C77.6231 31.0987 77.1299 32.0688 76.5578 33C75.9856 33.9312 75.3444 34.6102 74.6342 35.037C74.2002 35.3086 73.7168 35.425 73.1841 35.3862C72.6515 35.3474 72.1385 35.2019 71.6453 34.9497C71.1521 34.6975 70.718 34.3289 70.3432 33.8439C69.9683 33.3589 69.7217 32.7866 69.6033 32.127C69.485 31.545 69.4258 30.8853 69.4258 30.1481C69.0707 31.2346 68.6564 32.2628 68.1829 33.2328C67.7094 34.2028 67.157 34.9982 66.5256 35.619C66.1311 36.0458 65.6674 36.2883 65.1348 36.3465C64.6021 36.4047 64.0891 36.3174 63.5959 36.0846C63.1027 35.8518 62.6686 35.5123 62.2938 35.0661C61.919 34.6199 61.6723 34.1058 61.554 33.5238C61.4356 32.9418 61.3764 32.2046 61.3764 31.3122C61.3764 30.4197 61.406 29.4497 61.4652 28.4021C61.5244 27.3545 61.6033 26.2681 61.7019 25.1429C61.8006 24.0176 61.8696 22.9118 61.9091 21.8254ZM87.2409 25.2011C86.9253 25.6279 86.5307 25.9771 86.0572 26.2487C85.5837 26.5203 85.0708 26.7434 84.5184 26.918C83.966 27.0926 83.4037 27.2187 82.8315 27.2963C82.2594 27.3739 81.7563 27.4321 81.3223 27.4709C81.2039 28.2857 81.1349 29.0811 81.1151 29.8571C81.0954 30.6331 81.1349 31.3316 81.2335 31.9524C81.3321 32.5732 81.49 33.097 81.707 33.5238C81.924 33.9506 82.2298 34.2222 82.6244 34.3386C83.1373 34.4938 83.6897 34.4065 84.2816 34.0767C84.8735 33.7469 85.4456 33.291 85.998 32.709C86.5504 32.127 87.0831 31.448 87.5961 30.6719C88.109 29.8959 88.5628 29.149 88.9574 28.4312C89.3519 27.7134 89.6873 27.0538 89.9635 26.4524C90.2397 25.851 90.4173 25.4145 90.4962 25.1429C90.6146 24.7937 90.802 24.5609 91.0585 24.4445C91.3149 24.3281 91.5616 24.2893 91.7983 24.3281C92.0351 24.3669 92.2323 24.493 92.3902 24.7064C92.548 24.9198 92.5875 25.2011 92.5085 25.5503C92.4296 25.7831 92.2915 26.239 92.0942 26.918C91.8969 27.597 91.6109 28.3633 91.236 29.2169C90.8612 30.0705 90.4074 30.9532 89.8747 31.8651C89.3421 32.7769 88.7009 33.6111 87.9512 34.3677C87.2015 35.1243 86.3433 35.7548 85.3766 36.2592C84.4099 36.7636 83.3346 37.0158 82.1509 37.0158C80.7304 37.0158 79.6256 36.5308 78.8364 35.5608C78.0473 34.5908 77.5146 33.3686 77.2384 31.8942C76.9622 30.4197 76.9129 28.8386 77.0904 27.1508C77.268 25.463 77.6231 23.8818 78.1558 22.4074C78.6885 20.933 79.3593 19.7108 80.1681 18.7408C80.977 17.7708 81.8747 17.2858 82.8611 17.2858C83.8081 17.2858 84.6466 17.6059 85.3766 18.2461C86.1065 18.8863 86.6688 19.6332 87.0634 20.4868C87.458 21.3404 87.6848 22.2134 87.744 23.1058C87.8032 23.9982 87.6355 24.6967 87.2409 25.2011ZM83.5714 20.0212C83.2952 20.1376 82.9992 20.6323 82.6836 21.5053C82.3679 22.3783 82.072 23.4356 81.7958 24.6773C82.2298 24.6773 82.6638 24.6288 83.0979 24.5318C83.5319 24.4348 83.8476 24.2311 84.0449 23.9206C84.2027 23.6878 84.3013 23.3483 84.3408 22.9021C84.3803 22.4559 84.3704 22 84.3112 21.5344C84.252 21.0688 84.1534 20.6808 84.0153 20.3704C83.8772 20.06 83.7292 19.9436 83.5714 20.0212ZM130.092 5.9366C129.895 7.76023 129.875 9.84576 130.033 12.1932C130.191 14.5406 130.408 16.9463 130.684 19.4101C130.96 21.8739 131.217 24.2796 131.453 26.627C131.69 28.9744 131.789 31.0696 131.749 32.9127C131.71 34.7557 131.473 36.2398 131.039 37.365C130.605 38.4902 129.836 39.0529 128.731 39.0529C128.218 39.0529 127.823 38.7231 127.547 38.0634C127.271 37.4038 127.074 36.6084 126.955 35.6772C126.837 34.746 126.768 33.776 126.748 32.7672C126.728 31.7584 126.718 30.8853 126.718 30.1481C126.718 29.4885 126.709 28.8192 126.689 28.1402C126.669 27.4612 126.659 26.7337 126.659 25.9577H126.6C122.299 26.2293 117.998 26.4524 113.697 26.627C109.396 26.8016 105.036 26.9665 100.617 27.1217V28.8095C100.578 29.5467 100.489 30.4973 100.351 31.6614C100.213 32.8254 100.025 33.97 99.7885 35.0952C99.5518 36.2204 99.2657 37.1904 98.9303 38.0052C98.5949 38.8201 98.2102 39.2275 97.7762 39.2275C97.5394 39.2275 97.3125 38.888 97.0955 38.2089C96.8785 37.5299 96.7009 36.6375 96.5628 35.5317C96.4247 34.4259 96.2965 33.1552 96.1781 31.7196C96.0597 30.2839 95.9808 28.8095 95.9414 27.2963C95.4679 27.2963 94.9549 27.3157 94.4025 27.3545C93.8501 27.3933 93.3273 27.3933 92.8341 27.3545C92.3408 27.3157 91.9364 27.2187 91.6207 27.0635C91.3051 26.9083 91.1473 26.6367 91.1473 26.2487C91.1473 25.8995 91.3149 25.6182 91.6503 25.4048C91.9857 25.1914 92.3902 25.0265 92.8637 24.9101C93.3372 24.7937 93.8501 24.7161 94.4025 24.6773C94.9549 24.6385 95.4482 24.6191 95.8822 24.6191C95.7638 22.1746 95.7342 19.7496 95.7934 17.344C95.8526 14.9383 95.8822 12.4939 95.8822 10.0107C95.8822 8.73024 95.9019 7.55652 95.9414 6.48951C95.9808 5.42249 96.0597 4.50098 96.1781 3.72497C96.2965 2.94896 96.4642 2.33785 96.6812 1.89165C96.8982 1.44544 97.1843 1.22234 97.5394 1.22234C98.0918 1.22234 98.5949 1.39694 99.0487 1.74614C99.5024 2.09535 99.8773 2.53186 100.173 3.05566C100.469 3.57947 100.696 4.17118 100.854 4.83079C101.012 5.4904 101.091 6.11121 101.091 6.69321V6.86782C100.972 10.0883 100.883 12.6976 100.824 14.6958C100.765 16.6941 100.726 18.3043 100.706 19.5265C100.686 20.7487 100.666 21.6993 100.647 22.3783C100.627 23.0573 100.617 23.6878 100.617 24.2699C102.353 24.1147 104.366 23.8722 106.654 23.5423C108.943 23.2125 111.281 22.9118 113.668 22.6402C116.055 22.3686 118.373 22.1746 120.622 22.0582C122.871 21.9418 124.824 22.0194 126.482 22.291C126.442 21.3986 126.422 20.4965 126.422 19.5847V16.8784C126.422 15.6755 126.432 14.1817 126.452 12.3969C126.472 10.6121 126.561 8.89514 126.718 7.24612C126.876 5.5971 127.123 4.18088 127.458 2.99746C127.794 1.81405 128.277 1.22234 128.908 1.22234C129.303 1.22234 129.589 1.42604 129.766 1.83345C129.944 2.24085 130.062 2.70646 130.122 3.23027C130.181 3.75407 130.191 4.27788 130.151 4.80169C130.112 5.32549 130.092 5.7038 130.092 5.9366ZM141.574 19.4974C142.127 19.6138 142.61 19.866 143.024 20.254C143.439 20.642 143.784 21.0688 144.06 21.5344C144.376 21.1852 144.77 20.9912 145.244 20.9524C145.717 20.9136 146.171 20.9815 146.605 21.1561C147.039 21.3307 147.394 21.6023 147.67 21.9709C147.947 22.3395 148.045 22.776 147.966 23.2804C147.809 23.9789 147.661 24.8519 147.522 25.8995C147.384 26.9471 147.296 27.9559 147.256 28.9259C147.217 29.8959 147.246 30.7301 147.345 31.4286C147.444 32.127 147.651 32.4762 147.966 32.4762C148.203 32.4762 148.489 32.1755 148.825 31.5741C149.16 30.9726 149.495 30.2645 149.831 29.4497C150.166 28.6349 150.472 27.8201 150.748 27.0053C151.024 26.1905 151.202 25.5697 151.281 25.1429C151.399 24.7549 151.596 24.493 151.873 24.3572C152.149 24.2214 152.415 24.1826 152.672 24.2408C152.928 24.299 153.145 24.4445 153.323 24.6773C153.5 24.9101 153.53 25.2011 153.412 25.5503C153.333 25.7831 153.204 26.2196 153.027 26.8598C152.849 27.5 152.622 28.2081 152.346 28.9841C152.07 29.7601 151.744 30.5652 151.37 31.3995C150.995 32.2337 150.561 32.9709 150.067 33.6111C149.574 34.2513 149.022 34.746 148.41 35.0952C147.799 35.4444 147.138 35.522 146.428 35.328C145.283 35.0176 144.455 34.3386 143.942 33.291C143.626 34.2222 143.192 35.0661 142.64 35.8227C142.087 36.5793 141.377 37.1322 140.509 37.4814C139.68 37.753 138.95 37.8112 138.319 37.656C137.175 37.3456 136.267 36.6472 135.596 35.5608C134.926 34.4744 134.472 33.2134 134.235 31.7778C133.998 30.3421 133.979 28.8483 134.176 27.2963C134.373 25.7443 134.778 24.3475 135.389 23.1058C136.001 21.8642 136.82 20.8845 137.845 20.1667C138.871 19.4489 140.114 19.2258 141.574 19.4974ZM143.113 25.3757C143.034 24.7161 142.886 24.0759 142.669 23.455C142.452 22.8342 142.127 22.485 141.693 22.4074C141.061 22.291 140.499 22.5141 140.006 23.0767C139.513 23.6393 139.108 24.3863 138.792 25.3175C138.477 26.2487 138.25 27.2672 138.112 28.373C137.974 29.4788 137.934 30.5264 137.993 31.5159C138.053 32.5053 138.21 33.3492 138.467 34.0476C138.723 34.746 139.108 35.134 139.621 35.2116C140.134 35.2892 140.617 35.0176 141.071 34.3968C141.525 33.776 141.919 32.9806 142.255 32.0106C142.59 31.0405 142.847 29.9638 143.024 28.7804C143.202 27.597 143.231 26.4621 143.113 25.3757ZM151.399 22C151.439 21.3404 151.725 20.836 152.257 20.4868C152.79 20.1376 153.352 19.9242 153.944 19.8466C154.536 19.769 155.069 19.7981 155.542 19.9339C156.016 20.0697 156.213 20.3122 156.134 20.6614C155.818 21.7478 155.67 22.9215 155.69 24.1826C155.71 25.4436 155.809 26.627 155.986 27.7328C156.164 28.8386 156.41 29.7601 156.726 30.4973C157.042 31.2345 157.357 31.6032 157.673 31.6032C158.028 31.6032 158.373 31.1666 158.709 30.2936C159.044 29.4206 159.34 28.4215 159.597 27.2963C159.853 26.1711 160.06 25.0653 160.218 23.9788C160.376 22.8924 160.455 22.1358 160.455 21.709C160.455 21.321 160.603 21.03 160.899 20.836C161.195 20.642 161.5 20.545 161.816 20.545C162.132 20.545 162.418 20.642 162.674 20.836C162.931 21.03 163.039 21.321 163 21.709C162.96 21.9418 162.901 22.4268 162.822 23.164C162.743 23.9013 162.615 24.7549 162.437 25.7249C162.26 26.6949 162.013 27.7037 161.698 28.7513C161.382 29.7989 160.987 30.7689 160.514 31.6614C160.04 32.5538 159.478 33.291 158.827 33.873C158.176 34.455 157.416 34.7654 156.548 34.8042C155.444 34.8818 154.516 34.5423 153.767 33.7857C153.017 33.0291 152.435 32.03 152.021 30.7883C151.606 29.5467 151.35 28.1499 151.251 26.5979C151.153 25.0459 151.202 23.5132 151.399 22ZM175.074 25.2011C174.758 25.6279 174.364 25.9771 173.89 26.2487C173.417 26.5203 172.904 26.7434 172.351 26.918C171.799 27.0926 171.237 27.2187 170.664 27.2963C170.092 27.3739 169.589 27.4321 169.155 27.4709C169.037 28.2857 168.968 29.0811 168.948 29.8571C168.928 30.6331 168.968 31.3316 169.066 31.9524C169.165 32.5732 169.323 33.097 169.54 33.5238C169.757 33.9506 170.063 34.2222 170.457 34.3386C170.97 34.4938 171.523 34.4065 172.114 34.0767C172.706 33.7469 173.278 33.291 173.831 32.709C174.383 32.127 174.916 31.448 175.429 30.6719C175.942 29.8959 176.396 29.149 176.79 28.4312C177.185 27.7134 177.52 27.0538 177.796 26.4524C178.073 25.851 178.25 25.4145 178.329 25.1429C178.447 24.7937 178.635 24.5609 178.891 24.4445C179.148 24.3281 179.394 24.2893 179.631 24.3281C179.868 24.3669 180.065 24.493 180.223 24.7064C180.381 24.9198 180.42 25.2011 180.341 25.5503C180.262 25.7831 180.124 26.239 179.927 26.918C179.73 27.597 179.444 28.3633 179.069 29.2169C178.694 30.0705 178.24 30.9532 177.708 31.8651C177.175 32.7769 176.534 33.6111 175.784 34.3677C175.034 35.1243 174.176 35.7548 173.209 36.2592C172.243 36.7636 171.167 37.0158 169.984 37.0158C168.563 37.0158 167.458 36.5308 166.669 35.5608C165.88 34.5908 165.347 33.3686 165.071 31.8942C164.795 30.4197 164.746 28.8386 164.923 27.1508C165.101 25.463 165.456 23.8818 165.989 22.4074C166.521 20.933 167.192 19.7108 168.001 18.7408C168.81 17.7708 169.708 17.2858 170.694 17.2858C171.641 17.2858 172.479 17.6059 173.209 18.2461C173.939 18.8863 174.502 19.6332 174.896 20.4868C175.291 21.3404 175.518 22.2134 175.577 23.1058C175.636 23.9982 175.468 24.6967 175.074 25.2011ZM171.404 20.0212C171.128 20.1376 170.832 20.6323 170.516 21.5053C170.201 22.3783 169.905 23.4356 169.629 24.6773C170.063 24.6773 170.497 24.6288 170.931 24.5318C171.365 24.4348 171.68 24.2311 171.878 23.9206C172.036 23.6878 172.134 23.3483 172.174 22.9021C172.213 22.4559 172.203 22 172.144 21.5344C172.085 21.0688 171.986 20.6808 171.848 20.3704C171.71 20.06 171.562 19.9436 171.404 20.0212ZM178.566 22.3492C178.684 21.5732 179.02 20.9912 179.572 20.6032C180.124 20.2152 180.687 20.0018 181.259 19.963C181.831 19.9242 182.334 20.0406 182.768 20.3122C183.202 20.5838 183.38 21.0106 183.301 21.5926C183.222 22.1358 183.113 22.7469 182.975 23.4259C182.837 24.105 182.709 24.784 182.59 25.463C182.472 26.142 182.383 26.7822 182.324 27.3836C182.265 27.985 182.255 28.4797 182.295 28.8677C182.61 27.8201 182.975 26.8792 183.39 26.045C183.804 25.2108 184.228 24.5027 184.662 23.9206C184.978 23.5326 185.412 23.2319 185.964 23.0185C186.517 22.8051 187.049 22.7081 187.562 22.7275C188.075 22.7469 188.489 22.8924 188.805 23.164C189.121 23.4356 189.18 23.8237 188.983 24.3281C188.864 24.6773 188.756 25.2205 188.657 25.9577C188.558 26.6949 188.509 27.4418 188.509 28.1984C188.509 28.955 188.549 29.6146 188.628 30.1772C188.706 30.7398 188.845 31.0211 189.042 31.0211C189.279 31.0211 189.594 30.8077 189.989 30.3809C190.383 29.9541 190.778 29.44 191.173 28.8386C191.567 28.2372 191.932 27.597 192.268 26.918C192.603 26.239 192.85 25.6473 193.007 25.1429C193.086 24.7937 193.254 24.5609 193.51 24.4445C193.767 24.3281 194.014 24.2893 194.25 24.3281C194.487 24.3669 194.684 24.493 194.842 24.7064C195 24.9198 195.039 25.2011 194.96 25.5503C194.842 26.0935 194.566 26.8307 194.132 27.7619C193.698 28.6931 193.185 29.6049 192.593 30.4973C192.001 31.3898 191.35 32.1755 190.64 32.8545C189.93 33.5335 189.239 33.873 188.568 33.873C187.424 33.873 186.605 33.5723 186.112 32.9709C185.619 32.3695 185.293 31.6905 185.136 30.9338C184.978 30.1772 184.919 29.44 184.958 28.7222C184.997 28.0044 184.978 27.5485 184.899 27.3545C184.701 27.4321 184.494 27.7037 184.277 28.1693C184.06 28.6349 183.853 29.1781 183.656 29.7989C183.459 30.4197 183.281 31.0696 183.123 31.7487C182.965 32.4277 182.867 33 182.827 33.4656C182.748 33.97 182.482 34.3483 182.028 34.6005C181.574 34.8527 181.081 34.9788 180.549 34.9788C180.016 34.9788 179.533 34.843 179.098 34.5714C178.664 34.2998 178.467 33.873 178.507 33.291C178.546 32.6314 178.546 31.836 178.507 30.9047C178.467 29.9735 178.428 28.9938 178.388 27.9656C178.349 26.9374 178.329 25.9383 178.329 24.9683C178.329 23.9983 178.408 23.1252 178.566 22.3492Z" fill="#111111"/>
<path d="M33.7648 48.5225C34.6596 48.7453 35.4299 49.5027 35.4299 50.5608C35.4299 51.9754 34.5237 52.833 32.5415 52.833H29.5286V45.0362H32.4169C34.048 45.0362 34.8635 45.9384 34.8635 46.9743C34.8635 47.7874 34.3425 48.2886 33.7648 48.5225ZM32.2923 46.3171H31.0124V48.0881H32.2923C33.0399 48.0881 33.391 47.7206 33.391 47.1971C33.391 46.6401 33.0172 46.3171 32.2923 46.3171ZM32.4735 51.5521C33.4816 51.5521 33.946 51.14 33.946 50.3937C33.946 49.7477 33.4816 49.2688 32.4282 49.2688H31.0124V51.5521H32.4735ZM48.8975 45.0362H50.3813V50.0039C50.3813 51.8974 49.0108 53.0001 47.3684 53.0001C45.7146 53.0001 44.3441 51.8974 44.3441 50.0039V45.0362H45.8279V50.0039C45.8279 51.2291 46.6208 51.6301 47.3684 51.6301C48.1159 51.6301 48.8975 51.2291 48.8975 50.0039V45.0362ZM61.0625 45.0362V52.833H59.5787V45.0362H61.0625ZM71.7438 51.4853H74.9606V52.833H70.26V45.0362H71.7438V51.4853ZM86.6499 45.0362C88.9153 45.0362 90.6596 46.7627 90.6596 48.9012C90.6596 51.1066 88.9153 52.833 86.6499 52.833H83.9315V45.0362H86.6499ZM86.6386 51.4519C88.247 51.4519 89.1532 50.3046 89.1532 48.9012C89.1532 47.5646 88.247 46.4174 86.6386 46.4174H85.4153V51.4519H86.6386ZM106.268 51.9976C105.554 52.6102 104.626 52.9444 103.572 52.9444C101.397 52.9444 99.4606 51.2959 99.4606 48.9346C99.4606 46.5733 101.397 44.9249 103.572 44.9249C104.614 44.9249 105.532 45.259 106.223 45.8493L105.328 46.8518C104.875 46.5176 104.275 46.2949 103.663 46.2949C102.19 46.2949 101.001 47.3975 101.001 48.9346C101.001 50.4717 102.19 51.5744 103.663 51.5744C104.286 51.5744 104.909 51.3405 105.373 50.9729L106.268 51.9976ZM121.321 52.833H119.747L117.98 50.1821H117.912H116.666V52.833H115.182V45.0362H117.912C119.69 45.0362 120.812 46.1055 120.812 47.6537C120.812 48.7341 120.268 49.5361 119.339 49.9259L121.321 52.833ZM116.666 46.384V48.9235H117.833C118.728 48.9235 119.328 48.5448 119.328 47.6537C119.328 46.7738 118.728 46.384 117.833 46.384H116.666ZM136.533 52.833L135.876 51.3293H131.957L131.3 52.833H129.726L133.26 45.0362H134.585L138.108 52.833H136.533ZM132.478 50.1375H135.355L133.917 46.8406L132.478 50.1375ZM151.791 46.3617H148.381V48.2886H151.19V49.5361H148.381V52.833H146.852V45.0362H151.791V46.3617ZM166.029 45.0362V46.384H163.99V52.833H162.506V46.384H160.478V45.0362H166.029Z" fill="#111111"/>
</g>
<defs>
<clipPath id="clip0_3541_4851">
<rect width="195" height="53" fill="white"/>
</clipPath>
</defs>
</svg>
