<svg width="109" height="103" viewBox="0 0 109 103" fill="none" xmlns="http://www.w3.org/2000/svg">
<g opacity="0.6" clip-path="url(#clip0_3541_4878)">
<path d="M102.533 26.0948C101.33 23.9471 100.032 21.8696 98.5526 19.9489C97.0909 18.0188 95.5274 16.1874 93.8273 14.5243C93.0064 13.6648 92.1009 12.8985 91.2368 12.102L89.8774 10.9838C89.6499 10.8002 89.4279 10.6105 89.1971 10.4324L88.4939 9.91271C86.6477 8.49409 84.678 7.29089 82.7055 6.16991C81.6938 5.64752 80.7199 5.09827 79.6666 4.64111C79.1515 4.40869 78.6298 4.15489 78.1251 3.94385L76.6262 3.34746L75.8409 3.03885L75.06 2.773L73.507 2.24512L71.9402 1.79783C71.4196 1.64983 70.9034 1.49744 70.3768 1.38781L68.8123 1.03096C68.2944 0.907627 67.7656 0.838559 67.2466 0.74044C66.7244 0.656572 66.2098 0.543104 65.6881 0.485548L64.1329 0.29479C63.6183 0.221337 63.1004 0.190641 62.5859 0.154462L61.0498 0.0464761L59.5224 0.0146831C59.016 0.00317184 58.5118 -0.0110802 58.0098 0.0135868C54.1446 0.0865254 50.3004 0.603897 46.5528 1.55555C39.3858 3.45271 33.2858 6.61172 28.5151 10.1983C26.283 11.8672 24.1887 13.7137 22.2526 15.7199C21.7866 16.1661 21.3831 16.6545 20.9593 17.1039L20.3408 17.7809C20.1417 18.0084 19.9553 18.2425 19.7655 18.4694L18.6641 19.8058L17.6765 21.1241C15.1326 24.5709 13.5807 27.5721 12.6166 29.6512C12.1014 30.679 11.8067 31.5012 11.5666 32.0412L11.2215 32.8656L11.2199 32.8694L10.906 33.7097C10.7113 34.2683 10.3608 35.0763 10.0349 36.1748C9.31688 38.346 8.39325 41.601 7.88851 45.8574L7.70587 47.4958L7.59376 49.2253C7.57736 49.5207 7.55275 49.8189 7.54181 50.1215L7.52923 51.0396C7.53033 51.658 7.49041 52.2911 7.52431 52.9363C7.55986 55.5181 7.79227 58.3131 8.30959 61.2589C8.99861 65.2412 10.2974 69.4971 12.2682 73.7848C12.6942 74.0375 13.1147 74.3 13.5314 74.5697C11.1893 70.0195 9.67561 65.4271 8.85807 61.1536C7.72446 55.3377 7.80266 50.1144 8.28334 45.9029C8.758 41.6772 9.65483 38.4381 10.3553 36.2767C10.6725 35.1826 11.0159 34.3785 11.2062 33.8221L11.5125 32.9862L11.8619 32.1661C12.1042 31.63 12.4071 30.8018 12.9228 29.791C13.8885 27.7414 15.452 24.7633 17.9964 21.362C20.5273 17.9656 24.0424 14.1088 28.8448 10.6538C34.2203 6.76841 40.313 3.99337 46.7683 2.49015C50.4537 1.6558 54.2224 1.24823 58.0005 1.27544C58.49 1.26338 58.9805 1.29079 59.4726 1.31491L60.9562 1.38342L62.4464 1.52759C62.9451 1.57528 63.4466 1.61804 63.9448 1.703L65.4486 1.92719C65.9533 1.99517 66.4499 2.1196 66.953 2.21333C67.4539 2.32187 67.963 2.4008 68.4617 2.534L69.9672 2.91881C70.4736 3.03666 70.9701 3.19836 71.4694 3.35459L72.9721 3.82545L74.4596 4.3747L75.2066 4.65043C75.4433 4.74361 75.696 4.85763 75.9399 4.96068L77.4218 5.59654C77.9124 5.8169 78.3865 6.06521 78.8721 6.29982C79.8487 6.75205 80.7828 7.31172 81.7392 7.8363C83.6072 8.96385 85.466 10.1638 87.1978 11.5681L87.8579 12.0823C88.0744 12.2588 88.2822 12.4457 88.4955 12.6272L89.768 13.729C90.5741 14.5134 91.42 15.2638 92.1823 16.1058C93.7644 17.7332 95.2086 19.5169 96.5522 21.3883C97.9133 23.2499 99.0945 25.2567 100.184 27.3216C102.36 31.5215 103.928 36.0111 104.839 40.6549C105.765 45.3719 106.009 50.198 105.564 54.9847L105.371 56.7843C105.29 57.3818 105.187 57.9776 105.096 58.5746C105.046 58.8722 105.008 59.1726 104.95 59.4686L104.765 60.3561C104.635 60.9459 104.536 61.5439 104.379 62.1277C103.82 64.4788 103.049 66.7898 102.195 69.0372C101.266 71.3 100.258 73.4794 99.0546 75.5838C98.7697 76.1166 98.4323 76.6198 98.1238 77.1389L97.6514 77.9118C97.4917 78.1678 97.314 78.4123 97.1466 78.6633C96.8048 79.1605 96.4724 79.6643 96.1229 80.156L95.0325 81.5987C92.0826 85.3891 88.6045 88.7347 84.7048 91.5329C80.8654 94.2877 76.6536 96.4794 72.1967 98.0417C69.9913 98.7965 67.7585 99.4455 65.4945 99.866C63.2366 100.305 60.965 100.611 58.7005 100.709C57.5696 100.798 56.4404 100.763 55.3172 100.78L53.6372 100.707C53.3583 100.693 53.0789 100.687 52.8006 100.666L51.9683 100.587C49.747 100.419 47.5727 100.016 45.4416 99.5524C44.3862 99.2772 43.3248 99.0432 42.3005 98.7C41.7865 98.5367 41.2681 98.3909 40.7617 98.2144L39.2551 97.6613C39.008 97.5686 38.7482 97.4793 38.512 97.385L37.7759 97.0709L36.3109 96.4455L34.8979 95.757C34.4287 95.5284 33.9584 95.3053 33.5083 95.0427L32.1494 94.2885C31.695 94.0429 31.2701 93.7502 30.8315 93.4849C30.4006 93.207 29.9538 92.957 29.5399 92.6599L28.2919 91.7895C27.8714 91.5088 27.4771 91.1958 27.0812 90.8877L25.8973 89.9685L24.7697 88.9988C24.3946 88.6781 24.0189 88.3607 23.6705 88.016C23.1361 87.5169 22.613 87.0057 22.1016 86.4828C21.376 85.6167 20.6902 84.7402 20.022 83.9761C18.7905 82.5689 17.5103 81.1174 16.4325 79.5459C15.3092 78.6897 14.1105 77.9776 12.7998 77.4892C7.86555 75.6436 2.07826 77.0145 0.970344 82.6824C-0.144678 88.3525 4.3947 93.406 9.25181 91.448C14.1127 89.4861 10.8792 84.5434 10.8792 84.5434C6.12985 90.3938 0.017189 84.5182 3.65044 80.0546C7.28643 75.5876 13.9662 80.1149 16.8185 83.3227C19.6714 86.5343 21.3902 92.593 29.2528 97.1674C33.0599 99.3809 36.4761 99.6933 38.9899 99.4285L40.1848 99.9016C40.7054 100.098 41.2386 100.264 41.7679 100.447C42.8228 100.83 43.9176 101.102 45.0085 101.416C47.2112 101.955 49.4675 102.432 51.7807 102.668L52.6474 102.772C52.9373 102.801 53.2282 102.816 53.5202 102.838L55.274 102.958C56.4475 102.971 57.6303 103.035 58.8159 102.973C61.1903 102.93 63.58 102.671 65.9632 102.27C68.3529 101.888 70.7175 101.268 73.0613 100.53C77.739 99.0147 82.2363 96.7442 86.377 93.8807L87.9169 92.7833L89.4076 91.6118C89.9129 91.2298 90.3821 90.8044 90.8628 90.3911C91.3391 89.9723 91.8307 89.5694 92.2813 89.121L93.6495 87.7912L94.9538 86.3951C95.3973 85.9368 95.8019 85.4429 96.2142 84.9562C96.6211 84.4645 97.0526 83.9914 97.4304 83.4756L98.5958 81.9517C98.9698 81.4326 99.3264 80.9009 99.6917 80.3747C99.8716 80.1099 100.06 79.8506 100.232 79.5799L100.739 78.7631C101.07 78.2144 101.429 77.6816 101.736 77.1186L102.668 75.4347C102.98 74.8772 103.255 74.2628 103.549 73.6784L103.982 72.7904C104.128 72.4933 104.23 72.2264 104.356 71.943L105.079 70.2656L105.274 69.7498L105.438 69.297L105.766 68.3915C105.995 67.7918 106.183 67.1773 106.368 66.5628C106.55 65.9467 106.761 65.3405 106.915 64.7167L107.388 62.8502C107.55 62.2291 107.653 61.5944 107.787 60.9673L107.976 60.0244C108.037 59.7098 108.076 59.3913 108.127 59.0745C108.22 58.4403 108.324 57.8083 108.407 57.1735L108.601 55.2632C108.679 54.6279 108.688 53.9871 108.728 53.3496C108.761 52.7115 108.804 52.074 108.795 51.4354L108.8 49.5224L108.716 47.6137C108.703 46.9773 108.617 46.3458 108.557 45.7138C108.49 45.0823 108.44 44.4497 108.332 43.8243L108.048 41.9469L107.677 40.0892C106.621 35.1591 104.889 30.4197 102.533 26.0948Z" fill="#111111"/>
<path d="M54.8106 41.5321C58.5795 41.5321 64.4218 37.4591 61.1719 30.6274C60.99 30.245 61.5108 29.9234 61.7659 30.2608C67.1476 37.3863 61.2738 45.1438 54.8106 45.1438H54.7898C48.3267 45.1438 42.4529 37.3863 47.8346 30.2608C48.0897 29.923 48.6105 30.245 48.4285 30.6274C45.1787 37.4596 51.1256 41.5321 54.8106 41.5321Z" fill="#111111"/>
<path d="M59.8363 47.4919C64.2861 45.4065 68.7355 47.3457 68.7355 51.7138C68.7355 54.6596 65.9698 58.3427 61.521 56.138C61.2136 55.9858 61.3714 55.525 61.7085 55.5891C64.3449 56.0912 66.1995 54.2716 66.1995 52.2205C66.1995 49.175 62.7927 49.4307 60.7678 50.5927L49.7636 56.0058C45.3138 58.0912 40.8645 56.152 40.8645 51.7839C40.8645 48.8381 43.6301 45.1549 48.079 47.3596C48.3864 47.5118 48.2285 47.9726 47.8915 47.9086C45.255 47.4065 43.4005 49.226 43.4005 51.2771C43.4005 54.3227 46.8073 54.067 48.8322 52.905L59.8368 47.491L59.8363 47.4919Z" fill="#111111"/>
<path d="M54.7999 23.7469C50.3756 23.7469 49.4923 30.2756 52.1107 32.9091C52.3843 33.1843 52.8218 32.8321 52.6134 32.5045C51.2237 30.3151 52.3634 26.6705 54.7999 26.6746C57.2364 26.6705 58.3761 30.3151 56.9864 32.504C56.7781 32.8321 57.2155 33.1843 57.4891 32.9087C60.1075 30.2756 59.2242 23.7469 54.7999 23.7469Z" fill="#111111"/>
<path d="M24.6925 66.2547C26.2696 66.4609 27.3668 67.681 27.7267 69.1931C27.8296 69.6914 27.8296 70.2069 27.7267 70.7053C27.3668 72.3549 26.0639 73.5062 24.3497 73.5062C23.4411 73.5062 22.4811 73.0938 21.7783 72.5267C21.8297 73.2312 21.8469 74.0389 21.8983 74.9324C21.9326 75.826 21.8811 76.6164 21.744 77.3037C21.6926 77.5787 21.1954 77.6474 20.9726 77.6474C20.8012 77.6474 20.6297 77.613 20.4583 77.5615C20.304 77.5099 20.2355 77.424 20.2526 77.3037C20.3726 76.4102 20.424 75.5166 20.4069 74.6403L20.2697 71.9768L19.9612 66.6671C19.9612 66.3407 20.4755 66.3063 20.6983 66.3063C20.9554 66.3063 21.4012 66.3407 21.4526 66.6671L21.504 67.5435C22.2411 66.7359 23.2011 66.2376 24.2982 66.2376C24.504 66.2376 24.6411 66.2376 24.6925 66.2547ZM26.3039 70.31C26.3725 69.5712 26.2353 68.901 25.8925 68.2824C25.5668 67.7325 25.0354 67.0452 24.3668 66.9249C23.8697 66.9249 23.3897 67.1827 22.944 67.681C22.5154 68.1793 22.2411 68.6604 22.1211 69.1244C22.0183 69.554 22.0011 69.9664 22.0697 70.3788C22.1211 70.8084 22.2583 71.2036 22.5154 71.5644C22.8583 72.1659 23.6468 72.7673 24.3497 72.7673C25.4125 72.7673 26.2525 71.2723 26.3039 70.31ZM34.9266 66.0829C35.3723 66.4266 35.578 66.9077 35.5609 67.5263C35.5266 68.1277 35.4237 68.6948 35.2695 69.1931V69.2275C35.218 69.5196 34.7895 69.5712 34.5323 69.5712C34.4123 69.5712 34.3438 69.5712 34.3266 69.554C34.2066 69.5368 34.0695 69.4852 33.9323 69.4337C33.7781 69.3821 33.7438 69.2962 33.7952 69.1416C33.9666 68.6948 34.0523 68.248 34.0523 67.7841C34.0523 67.6122 34.0352 67.3545 34.0009 66.9936C33.9495 66.6328 33.8123 66.4438 33.5895 66.3922C32.4752 66.3922 31.2753 68.6089 31.001 69.4852C30.761 70.1554 30.6581 70.8256 30.6924 71.5129C30.7267 72.3721 30.7438 73.2312 30.7438 74.0904C30.7267 74.9668 30.6924 75.8088 30.6067 76.6851C30.5896 76.8054 30.5038 76.8913 30.3496 76.9429C30.2296 76.9944 30.0581 77.0288 29.8524 77.0288C29.681 77.0288 29.5096 76.9944 29.3381 76.9429C29.1839 76.8913 29.0982 76.8054 29.1153 76.6851C29.4239 73.3 29.2524 69.932 28.5839 66.564C28.5667 66.4609 28.6353 66.375 28.7896 66.3063C28.961 66.2547 29.1324 66.2204 29.3039 66.2204C29.561 66.2204 30.0067 66.2376 30.0581 66.564C30.1096 66.7702 30.1267 66.9764 30.1781 67.1655L30.281 67.7841C31.0353 66.6156 32.2181 65.6877 33.6581 65.6877C34.1552 65.6877 34.5666 65.8252 34.9266 66.0829ZM36.3666 73.0766L36.3152 69.4509C36.3152 69.1244 36.8294 69.09 37.0523 69.09C37.2751 69.09 37.7894 69.1244 37.7894 69.4509L37.8923 76.7195C37.8923 76.8398 37.8237 76.9257 37.6694 76.9944C37.5323 77.046 37.3609 77.0632 37.1551 77.0632C36.9494 77.0632 36.778 77.046 36.6409 76.9944C36.4866 76.9257 36.418 76.8398 36.4009 76.7195L36.3666 73.0766ZM37.018 65.7049C37.618 65.7049 38.098 66.1688 38.098 66.7702C38.098 67.3717 37.618 67.8356 37.018 67.8356C36.418 67.8356 35.9552 67.3717 35.9552 66.7702C35.9552 66.1688 36.418 65.7049 37.018 65.7049ZM48.6063 66.2891C49.5835 66.4438 49.9263 67.2514 50.0806 68.1277C50.1663 68.5917 50.2006 69.0728 50.1835 69.554C50.1663 70.0351 50.1663 70.4475 50.1663 70.774L50.1149 74.0389L50.0463 77.2865C50.0463 77.613 49.532 77.6474 49.3092 77.6474C49.0863 77.6474 48.5721 77.613 48.5721 77.2865L48.6578 72.3893L48.7092 70.0351C48.7263 69.2447 48.6406 68.4714 48.4521 67.7153L48.3321 67.2342C48.2978 67.1139 48.2292 67.0624 48.1264 67.0624C48.1092 67.0624 48.0235 67.0967 47.8692 67.1483C46.755 67.8013 46.0521 70.6537 45.915 71.8222C45.8121 72.5611 45.7778 73.3343 45.795 74.142C45.8121 74.3138 45.6578 74.4341 45.315 74.4856C45.195 74.52 45.0578 74.5372 44.8693 74.5372C44.6636 74.5372 44.1493 74.4856 44.1493 74.1935C44.1664 73.4374 44.1836 72.6814 44.235 71.9253C44.2522 71.1864 44.2522 70.4303 44.235 69.6743L44.2007 68.6776C44.1836 68.1965 44.0807 67.6294 43.8236 67.1998C43.755 67.0452 43.7036 66.9593 43.6522 66.9593C43.635 66.9593 43.6007 66.9936 43.5836 67.0624C43.5322 67.0796 43.4293 67.1655 43.275 67.3373C42.6065 68.0762 42.1093 68.7807 41.7665 69.4509C41.4408 70.121 41.1836 70.9458 41.0122 71.9253C40.7208 73.5062 40.7036 75.1214 40.7036 76.7023C40.7036 77.0288 40.1894 77.0632 39.9665 77.0632C39.7437 77.0632 39.2294 76.9944 39.2294 76.7023V74.9152C39.2294 74.7262 39.2294 74.6231 39.2465 74.5716C39.298 71.7363 39.3494 68.9697 39.4865 66.1345C39.4865 65.8423 40.0008 65.7736 40.2237 65.7736C40.4122 65.7736 40.5836 65.808 40.7551 65.8595C40.9094 65.9111 40.9779 66.0142 40.9608 66.1345L40.9094 67.2342L40.8751 68.3339C41.1836 67.8184 41.5779 67.3545 42.075 66.9249C42.5722 66.4953 43.1379 66.2719 43.7722 66.2719C44.235 66.2719 44.6293 66.4266 44.9379 66.7359C45.2293 67.0624 45.435 67.4748 45.555 67.9559C46.155 66.9421 46.9435 66.2547 48.1606 66.2547C48.1778 66.2547 48.3321 66.2719 48.6063 66.2891ZM56.7148 74.3997C56.8176 74.2451 57.0405 74.1763 57.3833 74.1763C57.6062 74.1763 57.8119 74.2107 58.0005 74.2794C58.189 74.3482 58.2233 74.4513 58.1376 74.5716C57.7433 75.1902 57.2633 75.7744 56.6805 76.3071C56.1491 76.8054 55.4634 77.046 54.6062 77.046C53.5434 77.046 52.7548 76.7023 52.2577 75.9978C51.7606 75.2933 51.5034 74.4685 51.4863 73.5234C51.4692 72.9563 51.5034 72.4236 51.6063 71.8909C51.9834 69.9492 53.0977 66.0314 55.6176 66.0314C56.6633 66.0314 57.349 66.4953 57.6748 67.4404C57.7948 67.8356 57.829 68.2824 57.7776 68.7463C57.4519 71.0318 55.1891 72.458 53.012 72.5095C52.9606 73.0079 52.9606 73.5062 53.012 74.0045C53.0634 74.4341 53.2006 74.9152 53.4234 75.4307C53.6463 75.9462 54.0234 76.2384 54.5377 76.2899C55.0862 76.2899 55.5319 76.0665 55.8576 75.6026C56.1833 75.173 56.4576 74.7778 56.7148 74.3997ZM54.3491 68.2824L54.092 68.7807C53.612 69.7602 53.2863 70.774 53.0977 71.8222C53.8691 71.7363 54.5377 71.427 55.1034 70.8943C55.6862 70.3616 56.0805 69.7086 56.2691 68.9697C56.3891 68.523 56.4062 68.1106 56.3376 67.7497C56.3205 67.5779 56.2348 67.3717 56.0976 67.1311C55.9776 66.8733 55.8062 66.7531 55.6005 66.7531C55.3605 66.7702 55.1205 66.9764 54.8634 67.3717C54.6234 67.7497 54.452 68.059 54.3491 68.2824ZM64.3775 74.3997C64.4803 74.2451 64.7032 74.1763 65.046 74.1763C65.2689 74.1763 65.4746 74.2107 65.6632 74.2794C65.8517 74.3482 65.886 74.4513 65.8003 74.5716C65.406 75.1902 64.926 75.7744 64.3432 76.3071C63.8118 76.8054 63.1261 77.046 62.269 77.046C61.2061 77.046 60.4176 76.7023 59.9204 75.9978C59.4233 75.2933 59.1661 74.4685 59.149 73.5234C59.1319 72.9563 59.1662 72.4236 59.269 71.8909C59.6461 69.9492 60.7604 66.0314 63.2804 66.0314C64.326 66.0314 65.0118 66.4953 65.3375 67.4404C65.4575 67.8356 65.4917 68.2824 65.4403 68.7463C65.1146 71.0318 62.8518 72.458 60.6747 72.5095C60.6233 73.0079 60.6233 73.5062 60.6747 74.0045C60.7261 74.4341 60.8633 74.9152 61.0861 75.4307C61.309 75.9462 61.6861 76.2384 62.2004 76.2899C62.7489 76.2899 63.1946 76.0665 63.5204 75.6026C63.8461 75.173 64.1203 74.7778 64.3775 74.3997ZM62.0118 68.2824L61.7547 68.7807C61.2747 69.7602 60.949 70.774 60.7604 71.8222C61.5318 71.7363 62.2004 71.427 62.7661 70.8943C63.3489 70.3616 63.7432 69.7086 63.9318 68.9697C64.0518 68.523 64.0689 68.1106 64.0003 67.7497C63.9832 67.5779 63.8975 67.3717 63.7603 67.1311C63.6404 66.8733 63.4689 66.7531 63.2632 66.7531C63.0232 66.7702 62.7832 66.9764 62.5261 67.3717C62.2861 67.7497 62.1147 68.059 62.0118 68.2824ZM72.2116 66.2547C72.263 65.9283 72.6916 65.8939 72.9487 65.8939C73.1373 65.8939 73.3087 65.9283 73.4802 65.9798C73.6344 66.0314 73.703 66.1345 73.6859 66.2547C73.4287 69.8461 73.3945 73.4374 73.583 77.0288C73.583 77.3553 73.0687 77.3897 72.8459 77.3897C72.0745 77.3897 72.0745 77.1491 72.0745 76.5305C72.0573 76.4274 72.0573 76.2555 72.0573 76.0322C71.3888 76.8054 70.5145 77.1834 69.4345 77.1834C68.0117 77.1834 66.8974 76.3758 66.606 74.9496C66.5032 74.5372 66.4689 74.0561 66.486 73.5234C66.5203 72.4752 66.8117 71.5644 67.3431 70.7568C67.8917 69.9492 68.7317 69.554 69.846 69.554C70.6688 69.554 71.3888 69.8117 72.0059 70.3272C72.0402 68.9697 72.1088 67.6122 72.2116 66.2547ZM71.6802 72.8532C71.6802 71.8222 71.3373 70.8771 70.3945 70.396C70.1888 70.31 70.0174 70.2585 69.8974 70.2585C69.3317 70.2585 68.9374 70.7225 68.646 71.1864C68.0288 72.2518 67.8231 73.4203 68.0288 74.709C68.1488 75.2761 68.3545 75.9291 68.8174 76.2899C69.0231 76.4274 69.2288 76.4961 69.4345 76.4961C69.6917 76.4961 69.9488 76.4102 70.2059 76.2212C71.2174 75.4479 71.6802 74.0904 71.6802 72.8532ZM81.64 66.4094V66.4266C81.6914 66.4781 81.7086 66.5297 81.7086 66.5812L81.6572 69.09L81.6057 71.5988C81.5886 72.3033 81.5886 73.0422 81.5886 73.7983C81.5714 74.7434 81.2972 75.5854 80.7657 76.3243C80.2515 77.0632 79.4972 77.424 78.4858 77.424C77.2001 77.424 76.0344 76.7195 75.3487 75.6713C75.263 75.551 75.3144 75.4479 75.503 75.3792C75.6744 75.3104 75.8801 75.2761 76.103 75.2761C76.463 75.2761 76.6858 75.3448 76.7887 75.4995C77.1487 76.0493 77.6287 76.7023 78.3658 76.7023C79.2401 76.7023 79.9086 75.3448 79.9943 74.5887C80.0458 74.1076 80.08 73.6265 80.0972 73.1453L80.1315 72.3721V71.6332C79.4972 72.2346 78.5201 72.5611 77.6458 72.5611C76.4973 72.5611 75.3658 72.0284 75.0059 70.8771C74.8687 70.4647 74.8344 70.0007 74.8859 69.4681C75.0744 67.5779 76.4458 65.6533 78.4686 65.6533C79.1715 65.6533 79.7543 65.8423 80.2515 66.2204C80.3715 66.1001 80.5772 66.0485 80.8857 66.0485C81.1429 66.0485 81.5886 66.0829 81.64 66.4094ZM76.6173 71.1349C76.8915 71.5988 77.2344 71.8394 77.6287 71.8394C78.7944 71.8394 79.6001 70.4131 79.8743 69.3993C79.96 69.0557 80.0458 68.6948 80.0972 68.3339C79.8743 68.248 79.7715 68.1449 79.7715 68.0246C79.7372 67.6638 79.6172 67.2858 79.4115 66.9249C79.2229 66.5469 78.9144 66.3578 78.4858 66.3578C77.4058 66.3578 76.6173 68.4542 76.3944 69.3306C76.2401 69.9664 76.3087 70.5678 76.6173 71.1349ZM88.1713 74.3997C88.2742 74.2451 88.497 74.1763 88.8399 74.1763C89.0627 74.1763 89.2684 74.2107 89.457 74.2794C89.6456 74.3482 89.6799 74.4513 89.5942 74.5716C89.1999 75.1902 88.7199 75.7744 88.137 76.3071C87.6056 76.8054 86.9199 77.046 86.0628 77.046C84.9999 77.046 84.2114 76.7023 83.7143 75.9978C83.2171 75.2933 82.96 74.4685 82.9428 73.5234C82.9257 72.9563 82.96 72.4236 83.0628 71.8909C83.44 69.9492 84.5542 66.0314 87.0742 66.0314C88.1199 66.0314 88.8056 66.4953 89.1313 67.4404C89.2513 67.8356 89.2856 68.2824 89.2342 68.7463C88.9084 71.0318 86.6456 72.458 84.4685 72.5095C84.4171 73.0079 84.4171 73.5062 84.4685 74.0045C84.52 74.4341 84.6571 74.9152 84.88 75.4307C85.1028 75.9462 85.4799 76.2384 85.9942 76.2899C86.5428 76.2899 86.9885 76.0665 87.3142 75.6026C87.6399 75.173 87.9142 74.7778 88.1713 74.3997ZM85.8056 68.2824L85.5485 68.7807C85.0685 69.7602 84.7428 70.774 84.5542 71.8222C85.3257 71.7363 85.9942 71.427 86.5599 70.8943C87.1428 70.3616 87.537 69.7086 87.7256 68.9697C87.8456 68.523 87.8627 68.1106 87.7942 67.7497C87.777 67.5779 87.6913 67.3717 87.5542 67.1311C87.4342 66.8733 87.2628 66.7531 87.0571 66.7531C86.8171 66.7702 86.5771 66.9764 86.3199 67.3717C86.0799 67.7497 85.9085 68.059 85.8056 68.2824Z" fill="#111111"/>
</g>
<defs>
<clipPath id="clip0_3541_4878">
<rect width="108" height="103" fill="white" transform="translate(0.799927)"/>
</clipPath>
</defs>
</svg>
