<svg width="220" height="51" viewBox="0 0 220 51" fill="none" xmlns="http://www.w3.org/2000/svg">
<g opacity="0.6" clip-path="url(#clip0_3541_4791)">
<path d="M22.9229 51.0002C22.8157 51.0002 22.7084 50.9727 22.613 50.9181L0.710311 38.4741C0.518573 38.3654 0.399902 38.1635 0.399902 37.9457V13.0555C0.399902 12.8373 0.518055 12.6363 0.709793 12.5277L22.613 0.0831184C22.9074 -0.0872225 23.2883 0.013758 23.4598 0.30599C23.6313 0.597711 23.5297 0.971033 23.2328 1.13882L1.6405 13.4085V37.5928L22.9229 49.686L44.2053 37.5928V13.0555C44.2053 12.7184 44.4826 12.4456 44.8251 12.4456C45.1677 12.4456 45.4449 12.7184 45.4449 13.0555V37.9462C45.4449 38.164 45.3262 38.3654 45.135 38.4741L23.2323 50.9181C23.1369 50.9727 23.0302 51.0002 22.9229 51.0002Z" fill="#111111"/>
<path d="M9.09815 17.6594C9.00488 17.6594 8.91004 17.639 8.82039 17.5951L0.741997 13.6013C0.436252 13.4498 0.3124 13.0826 0.466308 12.7812C0.620217 12.4808 0.990738 12.3569 1.29856 12.5094L9.37695 16.5032C9.6827 16.6547 9.80655 17.0219 9.65264 17.3233C9.54381 17.5365 9.32513 17.6594 9.09815 17.6594Z" fill="#111111"/>
<path d="M22.923 51.0003C22.5805 51.0003 22.3032 50.7274 22.3032 50.3903V41.4959C22.3032 41.1588 22.5805 40.8859 22.923 40.8859C23.2655 40.8859 23.5428 41.1588 23.5428 41.4959V50.3898C23.5428 50.7274 23.2655 51.0003 22.923 51.0003Z" fill="#111111"/>
<path d="M22.9223 41.6045C22.8229 41.6045 22.7223 41.5806 22.629 41.5316L8.80523 34.2095C8.60417 34.1034 8.47928 33.8964 8.47928 33.672L8.47876 17.0489C8.47876 16.7118 8.756 16.439 9.09906 16.439C9.4416 16.439 9.71884 16.7118 9.71884 17.0489L9.71936 33.3068L23.2167 40.4565C23.5183 40.6161 23.6313 40.9869 23.4691 41.2837C23.3571 41.4877 23.1431 41.6045 22.9223 41.6045Z" fill="#111111"/>
<path d="M9.09967 17.6594C8.8872 17.6594 8.67992 17.5523 8.56436 17.358C8.39127 17.0683 8.48973 16.6939 8.7846 16.5236L22.6084 8.52931C22.9033 8.35795 23.2841 8.45434 23.4572 8.74607C23.6308 9.03575 23.5324 9.40958 23.237 9.58043L9.4137 17.5747C9.31473 17.6318 9.20642 17.6594 9.09967 17.6594Z" fill="#111111"/>
<path d="M9.2044 34.2738C8.99194 34.2738 8.78465 34.1667 8.66909 33.9723C8.49601 33.6827 8.59447 33.3083 8.88933 33.138L22.7142 25.1437C23.009 24.9723 23.3899 25.0687 23.5635 25.3604C23.7366 25.6501 23.6381 26.024 23.3428 26.1948L9.51844 34.1891C9.41946 34.2462 9.31116 34.2738 9.2044 34.2738Z" fill="#111111"/>
<path d="M22.923 26.3677C22.5805 26.3677 22.3032 26.0949 22.3032 25.7572V9.05466C22.3032 8.71755 22.5805 8.4447 22.923 8.4447C23.2655 8.4447 23.5428 8.71755 23.5428 9.05466V25.7572C23.5428 26.0949 23.2655 26.3677 22.923 26.3677Z" fill="#111111"/>
<path d="M22.9229 51.0002C22.8157 51.0002 22.7084 50.9727 22.613 50.9181L0.710311 38.4741C0.518573 38.3654 0.399902 38.1635 0.399902 37.9457V13.0555C0.399902 12.7184 0.677145 12.4456 1.0202 12.4456C1.36274 12.4456 1.63998 12.7184 1.63998 13.0555V37.5928L22.9224 49.686L44.2048 37.5928V13.4085L22.613 1.13882C22.3161 0.970523 22.2145 0.597711 22.3861 0.30599C22.5565 0.013758 22.9364 -0.0872225 23.2328 0.0831184L45.1355 12.5277C45.3268 12.6363 45.4454 12.8373 45.4454 13.0555V37.9462C45.4454 38.164 45.3268 38.3654 45.1355 38.4741L23.2328 50.9181C23.1369 50.9727 23.0302 51.0002 22.9229 51.0002Z" fill="#111111"/>
<path d="M36.7488 17.6594C36.5218 17.6594 36.3031 17.5365 36.1943 17.3233C36.0414 17.0219 36.1647 16.6547 36.47 16.5032L44.5473 12.5094C44.8562 12.3579 45.2257 12.4808 45.3801 12.7812C45.533 13.0826 45.4096 13.4498 45.1044 13.6013L37.027 17.5951C36.9374 17.639 36.8426 17.6594 36.7488 17.6594Z" fill="#111111"/>
<path d="M22.923 51.0003C22.5805 51.0003 22.3032 50.7275 22.3032 50.3903V40.9946C22.3032 40.6569 22.5805 40.3841 22.923 40.3841C23.2655 40.3841 23.5428 40.6569 23.5428 40.9946V50.3903C23.5428 50.7275 23.2655 51.0003 22.923 51.0003Z" fill="#111111"/>
<path d="M22.9233 41.6045C22.7025 41.6045 22.4885 41.4877 22.3766 41.2837C22.2144 40.9869 22.3274 40.6161 22.629 40.4565L36.1258 33.3068L36.1278 17.0489C36.1278 16.7118 36.4066 16.439 36.7481 16.439C37.0907 16.439 37.3679 16.7118 37.3679 17.0489L37.3653 33.672C37.3653 33.8958 37.241 34.1034 37.0394 34.2095L23.2166 41.5321C23.1233 41.5806 23.0228 41.6045 22.9233 41.6045Z" fill="#111111"/>
<path d="M36.7462 17.6594C36.6394 17.6594 36.5306 17.6319 36.4326 17.5748L22.6083 9.58046C22.3135 9.41012 22.215 9.03578 22.3881 8.7461C22.5622 8.45387 22.9415 8.35748 23.2369 8.52935L37.0607 16.5236C37.3561 16.694 37.4546 17.0683 37.281 17.358C37.1649 17.5523 36.9592 17.6594 36.7462 17.6594Z" fill="#111111"/>
<path d="M36.6421 34.2737C36.5354 34.2737 36.4276 34.2462 36.3296 34.1891L22.5053 26.1948C22.2104 26.0239 22.112 25.6501 22.2851 25.3604C22.4592 25.0687 22.8385 24.9718 23.1339 25.1437L36.9567 33.1385C37.252 33.3088 37.3515 33.6826 37.1774 33.9728C37.0619 34.1666 36.8551 34.2737 36.6421 34.2737Z" fill="#111111"/>
<path d="M22.923 26.3677C22.5805 26.3677 22.3032 26.0949 22.3032 25.7572V9.05466C22.3032 8.71755 22.5805 8.4447 22.923 8.4447C23.2655 8.4447 23.5428 8.71755 23.5428 9.05466V25.7572C23.5428 26.0949 23.2655 26.3677 22.923 26.3677Z" fill="#111111"/>
<path d="M72.1141 13.701V29.8465C72.1141 42.2372 57.2349 42.3123 57.2349 29.809V13.6635C57.2349 12.5371 61.5842 12.5371 61.5842 13.6635V29.809C61.5842 36.6802 67.7648 36.7177 67.7648 29.8465V13.701C67.7648 12.5746 72.1141 12.5746 72.1141 13.701ZM91.7624 37.0181C92.5636 38.8955 88.2906 39.7966 87.7946 38.6702L87.5657 38.1445C86.3067 35.1783 84.9332 31.799 83.6742 28.7952H81.8047V38.3323C81.8047 39.4587 77.4554 39.4587 77.4554 38.3323V15.2405C77.4554 13.4757 77.4936 12.9125 80.1642 12.875H84.0939C85.4673 12.875 86.9934 12.9125 88.1761 13.6635C90.7705 15.278 91.5717 18.1317 91.5335 21.0228C91.4953 23.4259 91.152 25.8289 88.7484 27.5937C88.4813 27.7439 88.2524 27.894 88.0235 28.0442C89.2444 30.8979 90.5797 34.1645 91.7624 37.0181ZM81.8047 24.5148H85.0858C86.8408 24.5148 87.1079 22.4121 87.1842 21.8113C87.2223 21.3983 87.2223 19.8964 87.146 19.183C86.9934 17.7937 86.4593 17.0803 84.7043 17.0803H81.8047V24.5148ZM99.5073 12.875H106.184C108.854 12.875 110.762 17.606 110.609 21.3983C110.533 23.3508 109.579 24.0266 108.359 25.4534C109.846 27.2557 110.762 28.3446 110.838 30.5975C110.953 34.2771 108.893 39.1583 106.565 39.1583H99.6217C97.2181 39.1583 97.2181 39.1583 97.2181 37.0932V14.9401C97.2181 12.9125 97.2181 12.9125 99.5073 12.875ZM101.567 17.1179V23.8764H103.857C105.764 23.8764 107.672 20.3094 105.383 17.1179H101.567ZM101.567 28.0818V34.8779H105.383C107.672 31.6488 105.764 28.0818 103.857 28.0818H101.567ZM125.908 13.6635L129.876 37.5062C130.181 39.3836 125.87 39.5714 125.641 38.2196L124.878 33.7139H120.415L119.652 38.2196C119.461 39.3461 115.111 39.3836 115.417 37.5062L119.423 13.6635C119.613 12.5371 125.756 12.6497 125.908 13.6635ZM124.153 29.471L122.666 20.4972L121.139 29.471H124.153ZM144.26 27.1431V13.6635C144.26 12.5371 148.456 12.5371 148.456 13.6635V37.5813C148.456 39.4587 144.794 39.4963 144.412 38.5576L138.689 24.74V38.3323C138.689 39.4587 134.454 39.4587 134.454 38.3323V14.865C134.454 11.9363 138.079 12.8374 138.651 13.9639L144.26 27.1431ZM163.068 32.0243C163.068 30.8979 167.303 30.8979 167.303 32.0243C167.303 36.2296 165.091 39.1583 161.046 39.1583C156.812 39.1583 153.912 36.5675 153.798 32.5875V32.5124V19.5585V19.4834C153.912 15.4658 156.964 12.7999 161.046 12.875C165.319 12.9501 167.303 15.8788 167.303 20.0466C167.303 21.173 163.068 21.173 163.068 20.0466C163.068 19.6336 163.068 19.2956 162.992 18.9202C162.763 16.7048 160.054 17.1179 159.482 17.4183C158.376 17.9439 158.147 19.2581 158.147 20.1592V31.9116C158.185 32.8128 158.376 34.1269 159.482 34.6526C160.054 34.953 162.763 35.366 162.992 33.1883C163.068 32.8128 163.068 32.4373 163.068 32.0243ZM184.357 18.1692C184.472 18.5822 184.395 33.8266 184.243 34.3898C183.556 37.2809 181.496 39.1583 178.253 39.1583H177.261C174.056 39.1583 171.996 37.2809 171.271 34.3898C171.119 33.8266 171.08 18.5822 171.157 18.1692C171.691 15.0152 173.675 12.9501 177.261 12.875H178.253C181.877 12.9501 183.823 15.0152 184.357 18.1692ZM176.689 34.6526C177.337 34.9905 178.177 34.9905 178.825 34.6526C179.932 34.1269 180.122 32.8128 180.161 31.9116V20.1592C180.161 19.2581 179.932 17.9439 178.825 17.4183C178.177 17.0803 177.337 17.0803 176.689 17.4183C175.582 17.9439 175.353 19.2581 175.353 20.1592V31.9116C175.392 32.8128 175.582 34.1269 176.689 34.6526ZM203.281 37.0181C204.082 38.8955 199.809 39.7966 199.313 38.6702L199.084 38.1445C197.825 35.1783 196.451 31.799 195.192 28.7952H193.323V38.3323C193.323 39.4587 188.974 39.4587 188.974 38.3323V15.2405C188.974 13.4757 189.012 12.9125 191.682 12.875H195.612C196.986 12.875 198.512 12.9125 199.694 13.6635C202.289 15.278 203.09 18.1317 203.052 21.0228C203.014 23.4259 202.67 25.8289 200.267 27.5937C200 27.7439 199.771 27.894 199.542 28.0442C200.763 30.8979 202.098 34.1645 203.281 37.0181ZM193.323 24.5148H196.604C198.359 24.5148 198.626 22.4121 198.702 21.8113C198.741 21.3983 198.741 19.8964 198.664 19.183C198.512 17.7937 197.978 17.0803 196.223 17.0803H193.323V24.5148ZM213.086 34.8779H218.541C219.686 34.8779 219.686 39.1583 218.541 39.1583H211.178C208.736 39.1583 208.736 39.1583 208.736 37.1308V14.9026C208.736 12.875 208.736 12.875 211.064 12.8374L218.503 12.875C219.648 12.875 219.648 17.1554 218.503 17.1554H213.086V23.9891H216.901C218.045 23.9891 218.045 28.3071 216.901 28.3071H213.086V34.8779Z" fill="#111111"/>
</g>
<defs>
<clipPath id="clip0_3541_4791">
<rect width="219" height="51" fill="white" transform="translate(0.399902)"/>
</clipPath>
</defs>
</svg>
