<svg width="40" height="40" viewBox="0 0 40 40" fill="none" xmlns="http://www.w3.org/2000/svg">
<path d="M22.8457 18.1012C24.6084 18.1012 26.2989 17.401 27.5453 16.1546C28.7918 14.9081 29.492 13.2176 29.492 11.4549C29.492 9.69219 28.7918 8.00168 27.5453 6.75525C26.2989 5.50883 24.6084 4.80859 22.8457 4.80859M22.1678 35.1917H4.53416C2.58584 35.1917 1.00781 33.7352 1.00781 31.9369C1.00781 27.4421 4.95572 23.7981 9.82462 23.7981H16.8773C18.765 23.7913 20.6102 24.3589 22.1678 25.4255M33.2899 23.7981V35.1917M38.9867 29.4949H27.5931M19.9973 11.4549C19.9973 13.2176 19.297 14.9081 18.0506 16.1546C16.8042 17.401 15.1137 18.1012 13.351 18.1012C11.5883 18.1012 9.89774 17.401 8.65131 16.1546C7.40489 14.9081 6.70465 13.2176 6.70465 11.4549C6.70465 9.69219 7.40489 8.00168 8.65131 6.75525C9.89774 5.50883 11.5883 4.80859 13.351 4.80859C15.1137 4.80859 16.8042 5.50883 18.0506 6.75525C19.297 8.00168 19.9973 9.69219 19.9973 11.4549Z" stroke="black" stroke-width="2" stroke-linecap="round" stroke-linejoin="round"/>
</svg>
