<svg width="179" height="71" viewBox="0 0 179 71" fill="none" xmlns="http://www.w3.org/2000/svg">
<g opacity="0.6" clip-path="url(#clip0_3541_4822)">
<path d="M178.2 68.0859H0.199951V70.4997H178.2V68.0859Z" fill="#111111"/>
<path d="M20.5072 19.9947C20.6045 19.9374 20.7151 19.8912 20.8419 19.8599C22.1359 19.5402 23.2456 18.9996 23.2537 18.9962C23.3597 18.821 23.415 18.5683 23.4427 18.3879C23.1125 17.9537 22.9593 17.4322 22.8907 16.9853C22.7691 16.9755 22.6084 16.802 22.4361 16.1834C22.1999 15.337 22.4505 15.2115 22.6631 15.2317C22.507 14.7871 22.5041 14.3495 22.6084 13.9447C22.7184 13.4683 22.972 13.0867 23.2566 12.7913C23.4363 12.597 23.6403 12.4271 23.8564 12.2883C24.0321 12.1646 24.2268 12.0582 24.4388 11.9853C24.6048 11.9287 24.7817 11.8917 24.9683 11.883C25.5462 11.8321 25.9841 11.979 26.2981 12.168C26.7677 12.4311 26.9457 12.7786 26.9457 12.7786C26.9457 12.7786 28.1268 12.863 27.61 15.3757C27.769 15.4318 27.8808 15.6526 27.697 16.3135C27.4706 17.1264 27.2643 17.1709 27.1404 17.0853C27.0678 17.501 26.9186 17.967 26.6254 18.3648C26.6547 18.5649 26.7193 18.8701 26.8541 19.0505C26.8541 19.0505 27.9315 19.5396 29.2296 19.8605C29.3563 19.8917 29.467 19.938 29.5643 19.9952C28.5854 21.4568 26.9221 22.4189 25.0352 22.4189C23.1494 22.4183 21.486 21.4568 20.5072 19.9947ZM12.4081 36.5348C12.2359 36.3041 12.1535 35.9139 12.116 35.6583C12.4911 35.1501 12.6812 34.554 12.774 34.0227C12.9324 34.132 13.1957 34.0747 13.4855 33.0358C13.7212 32.1916 13.5777 31.9083 13.3743 31.8372C14.0352 28.6249 12.5251 28.5168 12.5251 28.5168C12.5251 28.5168 12.2975 28.0722 11.6972 27.7357C11.295 27.494 10.7355 27.3061 9.99691 27.3709C9.75781 27.3825 9.53195 27.4293 9.31993 27.5021C9.04856 27.5952 8.79908 27.7311 8.57438 27.8895C8.2984 28.067 8.0374 28.2844 7.80752 28.5324C7.44339 28.91 7.11901 29.3979 6.97843 30.0073C6.84476 30.5248 6.84879 31.0839 7.04814 31.6528C6.77678 31.6268 6.45643 31.7869 6.75776 32.8692C6.97843 33.6602 7.18354 33.8822 7.3391 33.8949C7.4261 34.4667 7.62257 35.1333 8.04432 35.6884C8.0086 35.9191 7.93773 36.2417 7.80291 36.466C7.79311 36.4706 6.37404 37.1615 4.7199 37.5703C4.55742 37.6102 4.41626 37.6692 4.29181 37.7426C5.54322 39.6112 7.66982 40.841 10.0822 40.841C12.4945 40.841 14.6206 39.6112 15.8726 37.7426C15.7487 37.6692 15.6069 37.6102 15.4445 37.5703C13.7851 37.1604 12.4081 36.5348 12.4081 36.5348ZM46.1213 49.0197C46.1213 56.4214 40.142 62.421 32.7666 62.421C25.3912 62.421 19.4113 56.4208 19.4113 49.0197C19.4113 46.7498 19.9748 44.6118 20.9669 42.7385L17.4668 40.4363C15.6565 42.4772 13.0194 43.763 10.0828 43.763C4.62483 43.763 0.199951 39.3227 0.199951 33.8458C0.199951 28.3688 4.62483 23.9285 10.0828 23.9285C12.3044 23.9285 14.355 24.6645 16.0056 25.9064L19.3687 22.22C18.089 20.8359 17.306 18.9834 17.306 16.9466C17.306 12.6624 20.767 9.18933 25.0363 9.18933C29.3056 9.18933 32.7666 12.6624 32.7666 16.9466C32.7666 21.2308 29.3056 24.7038 25.0363 24.7038C23.4991 24.7038 22.0674 24.2517 20.8638 23.4752L17.4414 27.2264C19.0109 28.9817 19.9656 31.3018 19.9656 33.8458C19.9656 35.6728 19.4724 37.3841 18.6133 38.8544L22.004 41.0844C24.4354 37.7698 28.3498 35.6184 32.766 35.6184C40.142 35.6178 46.1213 41.618 46.1213 49.0197ZM18.6283 16.9466C18.6283 20.4977 21.497 23.3769 25.0363 23.3769C28.5751 23.3769 31.4443 20.4982 31.4443 16.9466C31.4443 13.3949 28.5751 10.5162 25.0363 10.5162C21.4976 10.5162 18.6283 13.3949 18.6283 16.9466ZM18.2757 33.8458C18.2757 29.3054 14.6079 25.6248 10.0833 25.6248C5.55878 25.6248 1.89097 29.3054 1.89097 33.8458C1.89097 38.3861 5.55878 42.0667 10.0833 42.0667C14.6079 42.0667 18.2757 38.3861 18.2757 33.8458ZM43.8369 49.0197C43.8369 42.8842 38.8802 37.9103 32.766 37.9103C26.6519 37.9103 21.6952 42.8842 21.6952 49.0197C21.6952 55.1552 26.6524 60.1286 32.7666 60.1286C38.8808 60.1286 43.8369 55.1552 43.8369 49.0197ZM35.8658 52.6997C35.633 52.3881 35.5218 51.8614 35.4711 51.5162C35.9775 50.83 36.2339 50.0251 36.3601 49.3076C36.5744 49.4557 36.9299 49.3782 37.3211 47.975C37.6392 46.8348 37.4456 46.4527 37.1713 46.3567C38.0638 42.0187 36.0248 41.873 36.0248 41.873C36.0248 41.873 35.7171 41.2723 34.907 40.8184C34.3643 40.4924 33.6084 40.2385 32.611 40.3264C32.2878 40.342 31.983 40.4051 31.6967 40.5033C31.3303 40.6294 30.9938 40.8127 30.6901 41.0266C30.3174 41.2665 29.9653 41.5596 29.6548 41.895C29.1633 42.4049 28.7254 43.0635 28.5353 43.8862C28.355 44.5852 28.3602 45.3403 28.6298 46.1081C28.2634 46.0728 27.8307 46.289 28.238 47.7506C28.5359 48.8185 28.813 49.1186 29.0227 49.1353C29.1403 49.9078 29.4053 50.8074 29.9751 51.5573C29.9273 51.8683 29.8317 52.3048 29.649 52.6072C29.6358 52.6136 27.7195 53.5462 25.4851 54.0989C25.2662 54.1532 25.0749 54.2325 24.9073 54.3319C26.5977 56.8556 29.4687 58.5161 32.7263 58.5161C35.9839 58.5161 38.8554 56.8556 40.5453 54.3319C40.3776 54.233 40.1863 54.1532 39.9674 54.0989C37.7256 53.5444 35.8658 52.6997 35.8658 52.6997Z" fill="#111111"/>
<path d="M55.5243 39.464V14.3311H60.2829C63.5076 14.3311 64.572 16.3418 64.572 19.9546V20.6143C64.572 22.7821 64.0711 24.4785 63.5076 25.7037V25.8294C64.6659 26.8033 65.386 28.7197 65.5425 32.0498V33.0551C65.292 37.4848 64.1337 39.464 60.9091 39.464H55.5243ZM58.655 25.0126H60.2829C61.1595 25.0126 61.7857 23.9759 61.7857 20.6143V19.9546C61.7857 17.5356 61.2222 16.8444 60.2829 16.8444H58.655V25.0126ZM58.655 36.3224H60.9091C61.8483 36.3224 62.5057 35.537 62.631 33.0551V32.0498C62.5057 28.3113 61.8483 27.5259 60.9091 27.5259H58.655V36.3224ZM69.6907 39.464V14.3311H74.7624C77.987 14.3311 79.0827 16.3103 79.0827 20.1117C79.0827 23.536 78.6758 25.4838 77.7052 26.4263V26.6148C78.5192 26.8976 78.7697 28.3741 79.0827 32.0498L79.7089 39.464H76.5782L76.1712 32.0498C75.9521 28.3113 75.3885 27.5259 74.4493 27.5259H72.8214V39.464H69.6907ZM72.8214 25.0126H74.7624C75.8581 25.0126 76.1712 23.913 76.1712 20.1117C76.1712 17.6298 75.7016 16.8444 74.7624 16.8444H72.8214V25.0126ZM84.1701 39.464V14.3311H87.3008V39.464H84.1701ZM92.0751 26.2378C92.0751 17.4727 92.0751 14.017 96.4581 14.017C99.6827 14.017 100.559 15.9962 100.778 20.74H97.8669C97.7417 17.3157 97.3973 16.5303 96.4581 16.5303C95.018 16.5303 95.018 18.0696 95.018 26.2378C95.018 35.3171 95.018 36.6365 96.4581 36.6365C97.4912 36.6365 97.8043 35.8511 97.8669 31.7985H100.81C100.622 37.6104 99.8392 39.7782 96.4581 39.7782C92.0751 39.7782 92.0751 36.291 92.0751 26.2378ZM104.958 39.464V14.3311H108.089V24.29L111.219 14.3311H114.35L110.593 26.2692L114.35 39.464H111.219L108.089 28.4684V39.464H104.958ZM118.185 39.464V14.3311H121.316V36.3224H125.386V39.464H118.185ZM129.221 39.464V26.2692C129.221 17.5042 129.221 14.0484 133.917 14.0484C138.613 14.0484 138.613 17.5042 138.613 26.2692V39.464H135.482V32.2383H132.351V39.464H129.221ZM132.351 29.725H135.482V26.2692C135.482 18.1011 135.482 16.5617 133.917 16.5617C132.351 16.5617 132.351 18.1011 132.351 26.2692V29.725ZM142.448 14.3311H145.579L147.457 24.0073H147.77L149.649 14.3311H152.779L149.179 28.5312V39.464H146.048V28.5312L142.448 14.3311ZM156.614 39.464V14.3311H163.815V16.8444H159.745V25.0126H163.189V27.5259H159.745V36.3224H163.815V39.464H156.614ZM167.963 39.464V14.3311H173.035C176.259 14.3311 177.355 16.3103 177.355 20.1117C177.355 23.536 176.948 25.4838 175.978 26.4263V26.6148C176.792 26.8976 177.042 28.3741 177.355 32.0498L177.981 39.464H174.851L174.444 32.0498C174.224 28.3113 173.661 27.5259 172.722 27.5259H171.094V39.464H167.963ZM171.094 25.0126H173.035C174.131 25.0126 174.444 23.913 174.444 20.1117C174.444 17.6298 173.974 16.8444 173.035 16.8444H171.094V25.0126Z" fill="#111111"/>
<path d="M58.2221 49.3274C59.4746 49.3274 60.8098 49.8108 60.8098 51.2334C60.8098 51.5649 60.5895 51.7169 60.3555 51.7169C60.1215 51.7169 59.8738 51.5511 59.8738 51.2334C59.8738 51.123 59.805 50.2252 58.2221 50.2252C56.9695 50.2252 56.419 50.7224 56.419 51.9102V55.239C56.419 56.4407 57.0934 56.8136 58.2221 56.8136C59.3645 56.8136 59.9977 56.344 59.9977 55.2252C59.9977 54.9075 60.2317 54.7556 60.4519 54.7556C60.6859 54.7556 60.9061 54.9075 60.9061 55.2252C60.9061 57.0898 59.8738 57.7114 58.2221 57.7114C56.4327 57.7114 55.5243 57.0484 55.5243 55.239V51.9102C55.5243 49.9489 56.5016 49.3274 58.2221 49.3274ZM64.0306 55.2252V51.7998C64.0306 50.1423 64.884 49.2583 66.5357 49.2583H66.8935C68.5315 49.2583 69.3986 50.1423 69.3986 51.7998V55.2252C69.3986 56.7445 68.3938 57.739 66.8935 57.739H66.5357C65.0078 57.739 64.0306 56.7307 64.0306 55.2252ZM66.5357 56.8136H66.8935C67.8846 56.8136 68.4764 56.192 68.4764 55.2252V51.7998C68.4764 50.7224 67.9534 50.1699 66.8935 50.1699H66.5357C65.4896 50.1699 64.9115 50.7362 64.9115 51.7998V55.2252C64.9115 56.2335 65.5447 56.8136 66.5357 56.8136ZM77.3681 49.797V57.228C77.3681 57.518 77.1479 57.6699 76.9277 57.6699C76.7625 57.6699 76.5423 57.5456 76.4459 57.3661C75.4136 55.3357 74.6428 53.7749 73.6105 51.7307V57.228C73.6105 57.518 73.3903 57.6699 73.1563 57.6699C72.936 57.6699 72.7021 57.518 72.7021 57.228V49.797C72.7021 49.3135 73.3903 49.2859 73.5417 49.576L76.4459 55.3357V49.797C76.4459 49.5069 76.6662 49.355 76.9001 49.355C77.1341 49.355 77.3681 49.5069 77.3681 49.797ZM80.6853 56.4821C80.3825 55.9158 81.1533 55.5014 81.5112 56.0677C81.6901 56.3578 82.2269 56.855 83.0803 56.855C83.4382 56.855 84.3328 56.5926 84.4567 55.5705C84.5393 54.9489 83.9474 54.3412 82.9289 53.8301C81.4974 53.1533 80.41 52.5594 80.41 51.3716C80.41 49.9627 81.5937 49.2997 82.8601 49.2997C84.0025 49.2997 84.6356 50.0042 84.8559 50.3633C85.1724 50.8743 84.4842 51.3716 84.0988 50.8743C83.9061 50.6257 83.5345 50.2113 82.8601 50.2113C82.103 50.2113 81.3185 50.5705 81.3185 51.3716C81.3185 52.0069 82.0204 52.3661 83.0665 52.8633C84.2915 53.471 85.5716 54.065 85.3789 55.681C85.2275 56.9517 84.264 57.7666 83.0803 57.7666C82.1856 57.7666 81.0845 57.2832 80.6853 56.4821ZM88.2006 49.355H92.3574C92.6464 49.355 92.7841 49.5898 92.7841 49.8246C92.7841 50.0594 92.6464 50.2804 92.3574 50.2804H90.7883V57.228C90.7883 57.518 90.5543 57.6699 90.3203 57.6699C90.0863 57.6699 89.8661 57.518 89.8661 57.228V50.2804H88.2006C87.9115 50.2804 87.7739 50.0594 87.7739 49.8246C87.7739 49.5898 87.9115 49.355 88.2006 49.355ZM96.6243 55.2528V57.228C96.6243 57.5318 96.3903 57.6699 96.1701 57.6699C95.9361 57.6699 95.7158 57.5318 95.7158 57.228V49.8108C95.7158 49.5345 95.8673 49.355 96.1701 49.355H98.0282C98.5513 49.355 100.203 49.5069 100.203 51.3716V53.0981C100.203 54.1478 99.8176 54.8108 98.9367 55.1009L99.8726 56.9931C100.065 57.3661 99.7763 57.6699 99.4735 57.6699C99.3083 57.6699 99.1018 57.5594 98.9917 57.3246L97.9869 55.2528H96.6243ZM99.2945 53.0981V51.3716C99.2945 51.0401 99.1707 50.2804 98.0282 50.2804H96.6243V54.3274H97.9044C98.5788 54.3274 99.2945 54.1755 99.2945 53.0981ZM103.479 55.2252V49.797C103.479 49.5069 103.713 49.355 103.933 49.355C104.167 49.355 104.387 49.5069 104.387 49.797V55.2252C104.387 56.2197 105.062 56.8136 105.998 56.8136H106.342C107.305 56.8136 107.966 56.1368 107.966 55.2252V49.797C107.966 49.5069 108.186 49.355 108.42 49.355C108.64 49.355 108.874 49.5069 108.874 49.797V55.2252C108.874 56.6478 107.87 57.739 106.342 57.739H105.998C104.47 57.739 103.479 56.6755 103.479 55.2252ZM114.724 49.3274C115.977 49.3274 117.312 49.8108 117.312 51.2334C117.312 51.5649 117.092 51.7169 116.858 51.7169C116.624 51.7169 116.376 51.5511 116.376 51.2334C116.376 51.123 116.307 50.2252 114.724 50.2252C113.472 50.2252 112.921 50.7224 112.921 51.9102V55.239C112.921 56.4407 113.596 56.8136 114.724 56.8136C115.867 56.8136 116.5 56.344 116.5 55.2252C116.5 54.9075 116.734 54.7556 116.954 54.7556C117.188 54.7556 117.408 54.9075 117.408 55.2252C117.408 57.0898 116.376 57.7114 114.724 57.7114C112.935 57.7114 112.026 57.0484 112.026 55.239V51.9102C112.026 49.9489 113.004 49.3274 114.724 49.3274ZM120.423 49.355H124.579C124.868 49.355 125.006 49.5898 125.006 49.8246C125.006 50.0594 124.868 50.2804 124.579 50.2804H123.01V57.228C123.01 57.518 122.776 57.6699 122.542 57.6699C122.308 57.6699 122.088 57.518 122.088 57.228V50.2804H120.423C120.134 50.2804 119.996 50.0594 119.996 49.8246C119.996 49.5898 120.134 49.355 120.423 49.355ZM127.924 57.2418V49.797C127.924 49.5069 128.144 49.355 128.365 49.355C128.585 49.355 128.819 49.5069 128.819 49.797V57.2418C128.819 57.8357 127.924 57.8357 127.924 57.2418ZM132.122 55.2252V51.7998C132.122 50.1423 132.976 49.2583 134.627 49.2583H134.985C136.623 49.2583 137.49 50.1423 137.49 51.7998V55.2252C137.49 56.7445 136.485 57.739 134.985 57.739H134.627C133.099 57.739 132.122 56.7307 132.122 55.2252ZM134.627 56.8136H134.985C135.976 56.8136 136.568 56.192 136.568 55.2252V51.7998C136.568 50.7224 136.045 50.1699 134.985 50.1699H134.627C133.581 50.1699 133.003 50.7362 133.003 51.7998V55.2252C133.003 56.2335 133.636 56.8136 134.627 56.8136ZM145.46 49.797V57.228C145.46 57.518 145.24 57.6699 145.019 57.6699C144.854 57.6699 144.634 57.5456 144.538 57.3661C143.505 55.3357 142.734 53.7749 141.702 51.7307V57.228C141.702 57.518 141.482 57.6699 141.248 57.6699C141.028 57.6699 140.794 57.518 140.794 57.228V49.797C140.794 49.3135 141.482 49.2859 141.633 49.576L144.538 55.3357V49.797C144.538 49.5069 144.758 49.355 144.992 49.355C145.226 49.355 145.46 49.5069 145.46 49.797ZM148.777 56.4821C148.474 55.9158 149.245 55.5014 149.603 56.0677C149.782 56.3578 150.319 56.855 151.172 56.855C151.53 56.855 152.424 56.5926 152.548 55.5705C152.631 54.9489 152.039 54.3412 151.021 53.8301C149.589 53.1533 148.502 52.5594 148.502 51.3716C148.502 49.9627 149.685 49.2997 150.952 49.2997C152.094 49.2997 152.727 50.0042 152.948 50.3633C153.264 50.8743 152.576 51.3716 152.19 50.8743C151.998 50.6257 151.626 50.2113 150.952 50.2113C150.195 50.2113 149.41 50.5705 149.41 51.3716C149.41 52.0069 150.112 52.3661 151.158 52.8633C152.383 53.471 153.663 54.065 153.471 55.681C153.319 56.9517 152.356 57.7666 151.172 57.7666C150.277 57.7666 149.176 57.2832 148.777 56.4821Z" fill="#111111"/>
</g>
<defs>
<clipPath id="clip0_3541_4822">
<rect width="178" height="70" fill="white" transform="translate(0.199951 0.5)"/>
</clipPath>
</defs>
</svg>
