<svg width="136" height="97" viewBox="0 0 136 97" fill="none" xmlns="http://www.w3.org/2000/svg">
<g opacity="0.6" clip-path="url(#clip0_3541_4810)">
<path d="M66.7016 56.9238C53.4971 55.6614 43.1277 44.3874 43.1277 30.7148C43.1277 16.2071 54.8138 4.39893 69.1715 4.39893C82.7027 4.39893 93.8506 14.8767 95.0999 28.2191C92.2169 18.926 83.6061 12.1577 73.4672 12.1577C60.9739 12.1674 50.8063 22.4316 50.8063 35.0651C50.8063 45.3099 57.5046 54.0009 66.7016 56.9238Z" fill="black"/>
<path d="M73.4769 55.2924C62.5693 55.2924 53.6798 46.446 53.4587 35.473C55.4865 42.2995 61.7716 47.2908 69.1811 47.2908C78.2244 47.2908 85.5858 39.8525 85.5858 30.705C85.5858 23.2181 80.6461 16.8771 73.8901 14.8184C84.7401 15.0418 93.5047 24.0338 93.5047 35.0457C93.5047 39.3281 92.1977 43.4163 89.7182 46.883C88.4112 48.5823 86.864 50.136 85.1533 51.4858C81.7609 53.9717 77.7054 55.2924 73.4769 55.2924Z" fill="black"/>
<path d="M46.2318 10.371C49.0661 10.371 51.3637 8.04935 51.3637 5.18548C51.3637 2.32162 49.0661 0 46.2318 0C43.3976 0 41.1 2.32162 41.1 5.18548C41.1 8.04935 43.3976 10.371 46.2318 10.371Z" fill="black"/>
<path d="M76.456 33.6862C78.6184 33.6862 80.3674 35.4536 80.3674 37.6385C80.3674 39.8233 78.6184 41.5907 76.456 41.5907C74.2937 41.5907 72.5447 39.8233 72.5447 37.6385C72.5447 35.4536 74.2937 33.6862 76.456 33.6862Z" fill="black"/>
<path d="M7.7806 73.2101C9.28891 73.6309 10.2975 74.6314 10.2975 76.5575C10.2975 78.8389 8.92803 80.3443 6.10571 80.3443H0.599976V66.8333H4.93056C7.81765 66.8333 9.33519 68.2358 9.33519 70.5359C9.33519 71.7234 8.82627 72.6959 7.7806 73.2101ZM4.95832 69.1616H3.2742V72.3406H5.07861C6.26305 72.3406 6.78126 71.63 6.78126 70.7137C6.78126 69.8161 6.19829 69.1616 4.95832 69.1616ZM5.5875 77.9411C7.08657 77.9411 7.60473 77.1277 7.60473 76.2487C7.60473 75.3511 7.0958 74.5003 5.53197 74.5003H3.27415V77.9411H5.5875ZM22.1071 80.3441L18.6278 74.3974H17.8228V80.3441H15.0468V66.8331H19.8954C22.9212 66.8331 24.1982 68.6376 24.1982 70.8723C24.1982 72.6862 23.1803 73.8643 21.3666 74.257L25.3919 80.344L22.1071 80.3441ZM17.8227 69.1616V72.3874H19.4605C20.941 72.3874 21.5425 71.7516 21.5425 70.7791C21.5425 69.8161 20.941 69.1616 19.4605 69.1616H17.8227ZM29.7063 80.3441V66.8331H32.4824V80.3441H29.7063ZM44.1346 80.5311C40.2019 80.5311 37.2961 77.8289 37.2961 73.5838C37.2961 69.3388 40.2017 66.6462 44.1346 66.6462C47.1142 66.6462 49.5015 68.189 50.4547 70.7509L47.8637 71.7046C47.2715 70.1337 45.8557 69.2268 44.1346 69.2268C41.8305 69.2268 40.0631 70.8537 40.0631 73.5839C40.0631 76.3142 41.8305 77.9504 44.1346 77.9504C45.8557 77.9504 47.2715 77.0341 47.8637 75.4633L50.4547 76.417C49.5016 78.979 47.1142 80.5311 44.1346 80.5311ZM62.9217 80.3441L58.7669 74.6032H57.7861V80.3441H55.01V66.8331H57.7861V72.144H58.7299L62.9217 66.8331H66.3085L61.1263 73.2939L66.4658 80.3441H62.9217ZM73.5097 77.8663H77.7015V80.3441H70.7337V66.8331H73.5097L73.5097 77.8663ZM91.0472 80.3441L90.0756 77.5578H84.459L83.4873 80.3441H80.6465L85.5695 66.8331H88.9656L93.8885 80.3441H91.0478H91.0472ZM85.2733 75.2107H89.2615L87.272 69.479L85.2733 75.2107ZM108.205 66.8331L103.81 73.8737V80.3441H101.025V73.9392L96.6015 66.8331H99.6736L102.403 71.4333L105.142 66.8331H108.205ZM120.117 69.3018H115.157V72.3687H119.552V74.8091H115.157V77.8665H120.117V80.3443H112.363V66.8333H120.117V69.3018ZM132.315 80.3441L128.836 74.3974H128.031V80.3441H125.255V66.8331H130.103C133.129 66.8331 134.406 68.6376 134.406 70.8723C134.406 72.6862 133.388 73.8643 131.575 74.257L135.6 80.344L132.315 80.3441ZM128.031 69.1616V72.3874H129.669C131.149 72.3874 131.751 71.7516 131.751 70.7791C131.751 69.8161 131.149 69.1616 129.669 69.1616H128.031Z" fill="black"/>
<path d="M21.5078 89.7537L20.7552 90.6446C20.4613 90.3404 20.1101 90.1014 19.7016 89.9276C19.293 89.7537 18.8629 89.6668 18.4114 89.6668C17.8236 89.6668 17.2878 89.8008 16.804 90.0688C16.3202 90.3368 15.9421 90.7025 15.6697 91.1661C15.3902 91.6513 15.2504 92.1909 15.2504 92.7848C15.2504 93.3497 15.4009 93.8712 15.702 94.3492C15.9887 94.7982 16.3739 95.1549 16.8578 95.4193C17.3416 95.6836 17.863 95.8158 18.4221 95.8158C18.9382 95.8158 19.4184 95.7036 19.8628 95.479C20.3072 95.2545 20.6764 94.9431 20.9703 94.5447L21.6906 95.5334C21.2821 95.9969 20.7929 96.3572 20.223 96.6143C19.6532 96.8714 19.0493 97 18.4114 97C17.6158 97 16.8846 96.8044 16.218 96.4133C15.5658 96.0367 15.0533 95.5189 14.6806 94.8598C14.2935 94.1862 14.1 93.4475 14.1 92.6436C14.1 91.8686 14.3043 91.1552 14.7128 90.5034C15.0999 89.8805 15.6249 89.3862 16.2879 89.0204C16.9509 88.6547 17.6623 88.4718 18.4221 88.4718C19.017 88.4718 19.5833 88.5877 20.1209 88.8194C20.6441 89.0367 21.1064 89.3482 21.5078 89.7537ZM30.3457 92.7087C30.3457 92.1293 30.1987 91.6042 29.9049 91.1335C29.6253 90.6772 29.2436 90.3187 28.7598 90.0579C28.276 89.7972 27.7509 89.6668 27.1847 89.6668C26.5969 89.6668 26.0611 89.8008 25.5773 90.0688C25.0935 90.3368 24.7154 90.7025 24.443 91.1661C24.1635 91.6513 24.0237 92.1909 24.0237 92.7848C24.0237 93.3497 24.1742 93.8712 24.4753 94.3492C24.762 94.7982 25.1473 95.1549 25.6311 95.4193C26.1149 95.6836 26.6382 95.8158 27.2008 95.8158C27.7635 95.8158 28.2867 95.6782 28.7706 95.403C29.2544 95.1278 29.6361 94.7584 29.9156 94.2949C30.2023 93.8096 30.3457 93.2809 30.3457 92.7087ZM31.5068 92.7739C31.5068 93.5561 31.3061 94.2768 30.9048 94.9358C30.5177 95.566 29.9927 96.0675 29.3296 96.4405C28.6666 96.8135 27.9516 97 27.1847 97C26.3891 97 25.658 96.8044 24.9914 96.4133C24.3391 96.0367 23.8266 95.5189 23.4539 94.8598C23.0668 94.1862 22.8733 93.4475 22.8733 92.6436C22.8733 91.8686 23.0776 91.1552 23.4861 90.5034C23.8732 89.8805 24.3982 89.3862 25.0612 89.0204C25.7243 88.6547 26.4357 88.4718 27.1954 88.4718C27.9767 88.4718 28.7007 88.6637 29.3673 89.0476C30.0195 89.4242 30.5356 89.9348 30.9155 90.5794C31.3097 91.253 31.5068 91.9845 31.5068 92.7739ZM33.5712 89.8515L32.6358 88.7108H34.1517L39.3018 94.9033V88.7108H40.4844V96.8153H39.3233L34.7216 91.2421V96.8153H33.5712V89.8515ZM49.0857 94.3492C49.0857 94.8779 48.9281 95.3487 48.6127 95.7615C48.3045 96.1526 47.8798 96.4568 47.3386 96.6741C46.7974 96.8914 46.1864 97 45.5054 97C44.8819 97 44.2762 96.8533 43.6884 96.56C43.1007 96.2667 42.6061 95.8593 42.2047 95.3378L43.0433 94.5447C43.7386 95.3921 44.5593 95.8158 45.5054 95.8158C45.9212 95.8158 46.3011 95.7651 46.6451 95.6637C47.025 95.5478 47.3189 95.3849 47.5268 95.1748C47.7633 94.9431 47.8816 94.6679 47.8816 94.3492C47.8816 93.9653 47.7633 93.6756 47.5268 93.4801C47.3261 93.3135 47.0286 93.2049 46.6344 93.1542C46.405 93.1252 46.0287 93.1107 45.5054 93.1107C44.545 93.1107 43.8121 92.9333 43.3067 92.5784C42.8014 92.2235 42.5488 91.702 42.5488 91.014C42.5488 90.5794 42.676 90.1666 42.9304 89.7755C43.1849 89.3844 43.5343 89.0729 43.9787 88.8412C44.4375 88.5949 44.9464 88.4718 45.5054 88.4718C46.1362 88.4718 46.706 88.5696 47.215 88.7651C47.7597 88.9752 48.265 89.3047 48.7309 89.7537L47.9998 90.6229C47.5626 90.268 47.1648 90.0199 46.8064 89.8787C46.448 89.7375 46.0144 89.6668 45.5054 89.6668C45.2116 89.6668 44.9374 89.7284 44.6829 89.8515C44.4285 89.9746 44.226 90.1394 44.0755 90.3458C43.925 90.5522 43.8497 90.7713 43.8497 91.0031C43.8497 91.626 44.4195 91.9374 45.5592 91.9374C46.4695 91.9374 47.1899 92.0316 47.7203 92.2199C48.222 92.4009 48.5804 92.6761 48.7954 93.0455C48.989 93.3714 49.0857 93.806 49.0857 94.3492ZM56.7731 89.9058H53.9455V96.8153H52.8058V89.9058H49.9459V88.7108H56.7731V89.9058ZM59.4503 89.895V92.5892C59.6725 92.4589 59.9198 92.372 60.1922 92.3285C60.3929 92.2923 60.6509 92.2742 60.9663 92.2742H62.493C62.9159 92.2742 63.2456 92.1764 63.4822 91.9809C63.733 91.7708 63.8585 91.4558 63.8585 91.0357C63.8585 90.6373 63.7259 90.3404 63.4606 90.1448C63.2313 89.9783 62.9087 89.895 62.493 89.895H59.4503ZM62.8801 95.5334L61.9017 93.4583H60.9663C60.6724 93.4583 60.4144 93.4765 60.1922 93.5127C59.9198 93.5634 59.6725 93.6503 59.4503 93.7734V96.8153H58.2784V88.7108H62.493C62.9876 88.7108 63.4248 88.805 63.8047 88.9933C64.1846 89.1816 64.4785 89.4496 64.6863 89.7972C64.9085 90.1666 65.0196 90.6011 65.0196 91.1009C65.0196 91.7093 64.8584 92.209 64.5358 92.6001C64.2133 92.9912 63.7581 93.2628 63.1704 93.4149L63.7939 94.7077C63.9731 94.9757 64.1129 95.164 64.2133 95.2726C64.3351 95.4102 64.4516 95.5026 64.5627 95.5497C64.6738 95.5967 64.8189 95.6203 64.9981 95.6203H65.1164L65.3744 95.6094V96.8153C64.9587 96.8153 64.6505 96.8008 64.4498 96.7718C64.1129 96.7139 63.8262 96.6016 63.5897 96.4351C63.3101 96.2323 63.0736 95.9317 62.8801 95.5334ZM70.804 97C70.0514 97 69.4045 96.8678 68.8633 96.6035C68.3222 96.3391 67.91 95.9571 67.6269 95.4573C67.3438 94.9576 67.2022 94.3601 67.2022 93.6648V88.7108H68.3634V93.6648C68.3634 94.3601 68.5748 94.8924 68.9977 95.2618C69.4206 95.6311 70.0227 95.8158 70.804 95.8158C71.5853 95.8158 72.1874 95.6311 72.6103 95.2618C73.0332 94.8924 73.2446 94.3601 73.2446 93.6648V88.7108H74.4058V93.6648C74.4058 94.3601 74.2642 94.9576 73.9811 95.4573C73.698 95.9571 73.2858 96.3391 72.7447 96.6035C72.2035 96.8678 71.5566 97 70.804 97ZM83.5339 89.7537L82.7813 90.6446C82.4874 90.3404 82.1362 90.1014 81.7276 89.9276C81.3191 89.7537 80.889 89.6668 80.4375 89.6668C79.8497 89.6668 79.3139 89.8008 78.8301 90.0688C78.3463 90.3368 77.9682 90.7025 77.6958 91.1661C77.4162 91.6513 77.2765 92.1909 77.2765 92.7848C77.2765 93.3497 77.427 93.8712 77.728 94.3492C78.0148 94.7982 78.4 95.1549 78.8838 95.4193C79.3677 95.6836 79.8891 95.8158 80.4482 95.8158C80.9643 95.8158 81.4445 95.7036 81.8889 95.479C82.3333 95.2545 82.7025 94.9431 82.9963 94.5447L83.7167 95.5334C83.3081 95.9969 82.8189 96.3572 82.2491 96.6143C81.6793 96.8714 81.0754 97 80.4375 97C79.6418 97 78.9107 96.8044 78.2441 96.4133C77.5919 96.0367 77.0794 95.5189 76.7066 94.8598C76.3196 94.1862 76.1261 93.4475 76.1261 92.6436C76.1261 91.8686 76.3303 91.1552 76.7389 90.5034C77.126 89.8805 77.651 89.3862 78.314 89.0204C78.977 88.6547 79.6884 88.4718 80.4482 88.4718C81.0431 88.4718 81.6094 88.5877 82.147 88.8194C82.6702 89.0367 83.1325 89.3482 83.5339 89.7537ZM91.4041 89.9058H88.5764V96.8153H87.4368V89.9058H84.5768V88.7108H91.4041V89.9058ZM94.0598 96.8153H92.9093V88.7108H94.0598V96.8153ZM103.36 92.7087C103.36 92.1293 103.213 91.6042 102.919 91.1335C102.64 90.6772 102.258 90.3187 101.774 90.0579C101.29 89.7972 100.765 89.6668 100.199 89.6668C99.6112 89.6668 99.0754 89.8008 98.5916 90.0688C98.1077 90.3368 97.7296 90.7025 97.4573 91.1661C97.1777 91.6513 97.0379 92.1909 97.0379 92.7848C97.0379 93.3497 97.1885 93.8712 97.4895 94.3492C97.7762 94.7982 98.1615 95.1549 98.6453 95.4193C99.1291 95.6836 99.6524 95.8158 100.215 95.8158C100.778 95.8158 101.301 95.6782 101.785 95.403C102.269 95.1278 102.65 94.7584 102.93 94.2949C103.217 93.8096 103.36 93.2809 103.36 92.7087ZM104.521 92.7739C104.521 93.5561 104.32 94.2768 103.919 94.9358C103.532 95.566 103.007 96.0675 102.344 96.4405C101.681 96.8135 100.966 97 100.199 97C99.4033 97 98.6722 96.8044 98.0056 96.4133C97.3533 96.0367 96.8408 95.5189 96.4681 94.8598C96.0811 94.1862 95.8875 93.4475 95.8875 92.6436C95.8875 91.8686 96.0918 91.1552 96.5004 90.5034C96.8874 89.8805 97.4125 89.3862 98.0755 89.0204C98.7385 88.6547 99.4499 88.4718 100.21 88.4718C100.991 88.4718 101.715 88.6637 102.382 89.0476C103.034 89.4242 103.55 89.9348 103.93 90.5794C104.324 91.253 104.521 91.9845 104.521 92.7739ZM106.585 89.8515L105.65 88.7108H107.166L112.316 94.9033V88.7108H113.499V96.8153H112.338L107.736 91.2421V96.8153H106.585V89.8515ZM122.1 94.3492C122.1 94.8779 121.942 95.3487 121.627 95.7615C121.319 96.1526 120.894 96.4568 120.353 96.6741C119.812 96.8914 119.201 97 118.52 97C117.896 97 117.29 96.8533 116.703 96.56C116.115 96.2667 115.62 95.8593 115.219 95.3378L116.058 94.5447C116.753 95.3921 117.574 95.8158 118.52 95.8158C118.935 95.8158 119.315 95.7651 119.659 95.6637C120.039 95.5478 120.333 95.3849 120.541 95.1748C120.778 94.9431 120.896 94.6679 120.896 94.3492C120.896 93.9653 120.778 93.6756 120.541 93.4801C120.34 93.3135 120.043 93.2049 119.649 93.1542C119.419 93.1252 119.043 93.1107 118.52 93.1107C117.559 93.1107 116.826 92.9333 116.321 92.5784C115.816 92.2235 115.563 91.702 115.563 91.014C115.563 90.5794 115.69 90.1666 115.945 89.7755C116.199 89.3844 116.549 89.0729 116.993 88.8412C117.452 88.5949 117.961 88.4718 118.52 88.4718C119.15 88.4718 119.72 88.5696 120.229 88.7651C120.774 88.9752 121.279 89.3047 121.745 89.7537L121.014 90.6229C120.577 90.268 120.179 90.0199 119.821 89.8787C119.462 89.7375 119.029 89.6668 118.52 89.6668C118.226 89.6668 117.952 89.7284 117.697 89.8515C117.443 89.9746 117.24 90.1394 117.09 90.3458C116.939 90.5522 116.864 90.7713 116.864 91.0031C116.864 91.626 117.434 91.9374 118.573 91.9374C119.484 91.9374 120.204 92.0316 120.735 92.2199C121.236 92.4009 121.595 92.6761 121.81 93.0455C122.003 93.3714 122.1 93.806 122.1 94.3492Z" fill="black"/>
</g>
<defs>
<clipPath id="clip0_3541_4810">
<rect width="135" height="97" fill="white" transform="translate(0.599976)"/>
</clipPath>
</defs>
</svg>
