<svg width="29" height="29" viewBox="0 0 29 29" fill="none" xmlns="http://www.w3.org/2000/svg">
<path d="M12.6875 8.76074C12.5273 8.76074 12.3736 8.8244 12.2603 8.9377C12.147 9.051 12.0833 9.20467 12.0833 9.36491C12.0833 9.52514 12.147 9.67882 12.2603 9.79212C12.3736 9.90542 12.5273 9.96908 12.6875 9.96908H16.3125C16.4727 9.96908 16.6264 9.90542 16.7397 9.79212C16.853 9.67882 16.9167 9.52514 16.9167 9.36491C16.9167 9.20467 16.853 9.051 16.7397 8.9377C16.6264 8.8244 16.4727 8.76074 16.3125 8.76074H12.6875ZM11.4792 15.4066C11.4792 15.727 11.3519 16.0344 11.1253 16.261C10.8986 16.4876 10.5913 16.6149 10.2708 16.6149C9.95036 16.6149 9.64302 16.4876 9.41641 16.261C9.18981 16.0344 9.0625 15.727 9.0625 15.4066C9.0625 15.0861 9.18981 14.7788 9.41641 14.5522C9.64302 14.3255 9.95036 14.1982 10.2708 14.1982C10.5913 14.1982 10.8986 14.3255 11.1253 14.5522C11.3519 14.7788 11.4792 15.0861 11.4792 15.4066ZM11.4792 19.6357C11.4792 19.9562 11.3519 20.2636 11.1253 20.4902C10.8986 20.7168 10.5913 20.8441 10.2708 20.8441C9.95036 20.8441 9.64302 20.7168 9.41641 20.4902C9.18981 20.2636 9.0625 19.9562 9.0625 19.6357C9.0625 19.3153 9.18981 19.0079 9.41641 18.7813C9.64302 18.5547 9.95036 18.4274 10.2708 18.4274C10.5913 18.4274 10.8986 18.5547 11.1253 18.7813C11.3519 19.0079 11.4792 19.3153 11.4792 19.6357ZM14.5 16.6149C14.8205 16.6149 15.1278 16.4876 15.3544 16.261C15.581 16.0344 15.7083 15.727 15.7083 15.4066C15.7083 15.0861 15.581 14.7788 15.3544 14.5522C15.1278 14.3255 14.8205 14.1982 14.5 14.1982C14.1795 14.1982 13.8722 14.3255 13.6456 14.5522C13.419 14.7788 13.2917 15.0861 13.2917 15.4066C13.2917 15.727 13.419 16.0344 13.6456 16.261C13.8722 16.4876 14.1795 16.6149 14.5 16.6149ZM15.7083 19.6357C15.7083 19.9562 15.581 20.2636 15.3544 20.4902C15.1278 20.7168 14.8205 20.8441 14.5 20.8441C14.1795 20.8441 13.8722 20.7168 13.6456 20.4902C13.419 20.2636 13.2917 19.9562 13.2917 19.6357C13.2917 19.3153 13.419 19.0079 13.6456 18.7813C13.8722 18.5547 14.1795 18.4274 14.5 18.4274C14.8205 18.4274 15.1278 18.5547 15.3544 18.7813C15.581 19.0079 15.7083 19.3153 15.7083 19.6357ZM18.7292 16.6149C19.0496 16.6149 19.357 16.4876 19.5836 16.261C19.8102 16.0344 19.9375 15.727 19.9375 15.4066C19.9375 15.0861 19.8102 14.7788 19.5836 14.5522C19.357 14.3255 19.0496 14.1982 18.7292 14.1982C18.4087 14.1982 18.1014 14.3255 17.8747 14.5522C17.6481 14.7788 17.5208 15.0861 17.5208 15.4066C17.5208 15.727 17.6481 16.0344 17.8747 16.261C18.1014 16.4876 18.4087 16.6149 18.7292 16.6149Z" fill="black" fill-opacity="0.5"/>
<path fill-rule="evenodd" clip-rule="evenodd" d="M9.66667 4.22949C9.8269 4.22949 9.98057 4.29315 10.0939 4.40645C10.2072 4.51975 10.2708 4.67342 10.2708 4.83366V6.04199H18.7292V4.83366C18.7292 4.67342 18.7928 4.51975 18.9061 4.40645C19.0194 4.29315 19.1731 4.22949 19.3333 4.22949C19.4936 4.22949 19.6472 4.29315 19.7605 4.40645C19.8738 4.51975 19.9375 4.67342 19.9375 4.83366V6.04562C20.2331 6.04803 20.4966 6.05851 20.7277 6.07703C21.1688 6.11328 21.5555 6.18941 21.9131 6.37066C22.4814 6.66053 22.9433 7.12285 23.2326 7.69137C23.4151 8.04903 23.4912 8.4357 23.5275 8.87553C23.5625 9.30449 23.5625 9.83253 23.5625 10.4875V19.7215C23.5625 20.3764 23.5625 20.9057 23.5275 21.3322C23.4912 21.7733 23.4151 22.16 23.2326 22.5176C22.9431 23.0857 22.4812 23.5476 21.9131 23.8371C21.5555 24.0196 21.1688 24.0957 20.729 24.132C20.3 24.167 19.772 24.167 19.1182 24.167H9.88296C9.22804 24.167 8.69879 24.167 8.27225 24.132C7.83121 24.0957 7.44454 24.0196 7.08687 23.8371C6.51836 23.5478 6.05604 23.0859 5.76617 22.5176C5.58492 22.16 5.50879 21.7733 5.47254 21.3335C5.4375 20.9045 5.4375 20.3752 5.4375 19.7203V10.4887C5.4375 9.9147 5.4375 9.43983 5.46167 9.04228L5.47254 8.87795C5.50879 8.43691 5.58492 8.05024 5.76617 7.69258C6.05583 7.12388 6.51818 6.66153 7.08687 6.37187C7.44454 6.19062 7.83121 6.11449 8.27104 6.07824C8.50385 6.05971 8.76767 6.04924 9.0625 6.04683V4.83366C9.0625 4.67342 9.12615 4.51975 9.23946 4.40645C9.35276 4.29315 9.50643 4.22949 9.66667 4.22949ZM9.0625 7.85449V7.25395C8.83147 7.25586 8.60056 7.26513 8.37013 7.28174C8.00521 7.31074 7.79496 7.36633 7.63546 7.44728C7.29411 7.62111 7.01661 7.89861 6.84279 8.23995C6.76183 8.39945 6.70625 8.6097 6.67725 8.97462C6.64583 9.34799 6.64583 9.82649 6.64583 10.5128V11.1774H22.3542V10.5128C22.3542 9.82649 22.3542 9.34799 22.3228 8.97462C22.2938 8.6097 22.2382 8.39945 22.1572 8.23995C21.9834 7.89861 21.7059 7.62111 21.3645 7.44728C21.205 7.36633 20.9948 7.31074 20.6299 7.28174C20.3994 7.26513 20.1685 7.25586 19.9375 7.25395V7.85449C19.9375 8.01473 19.8738 8.1684 19.7605 8.2817C19.6472 8.39501 19.4936 8.45866 19.3333 8.45866C19.1731 8.45866 19.0194 8.39501 18.9061 8.2817C18.7928 8.1684 18.7292 8.01473 18.7292 7.85449V7.25033H10.2708V7.85449C10.2708 8.01473 10.2072 8.1684 10.0939 8.2817C9.98057 8.39501 9.8269 8.45866 9.66667 8.45866C9.50643 8.45866 9.35276 8.39501 9.23946 8.2817C9.12615 8.1684 9.0625 8.01473 9.0625 7.85449ZM22.3542 12.3857H6.64583V19.6962C6.64583 20.3825 6.64583 20.8622 6.67725 21.2344C6.70625 21.5993 6.76183 21.8095 6.84279 21.969C7.01661 22.3104 7.29411 22.5879 7.63546 22.7617C7.79496 22.8427 8.00521 22.8982 8.37013 22.9272C8.7435 22.9587 9.222 22.9587 9.90833 22.9587H19.0917C19.778 22.9587 20.2577 22.9587 20.6299 22.9272C20.9948 22.8982 21.205 22.8427 21.3645 22.7617C21.7059 22.5879 21.9834 22.3104 22.1572 21.969C22.2382 21.8095 22.2938 21.5993 22.3228 21.2344C22.3542 20.8622 22.3542 20.3825 22.3542 19.6962V12.3857Z" fill="black" fill-opacity="0.5"/>
</svg>
