<svg width="40" height="40" viewBox="0 0 40 40" fill="none" xmlns="http://www.w3.org/2000/svg">
<g clip-path="url(#clip0_3713_2092)">
<path d="M20.0011 38.5716C24.9266 38.5716 29.6503 36.6149 33.1331 33.1321C36.6159 29.6493 38.5725 24.9256 38.5725 20.0001C38.5725 15.0747 36.6159 10.351 33.1331 6.86816C29.6503 3.38534 24.9266 1.42871 20.0011 1.42871C15.0757 1.42871 10.352 3.38534 6.86913 6.86816C3.38631 10.351 1.42969 15.0747 1.42969 20.0001C1.42969 24.9256 3.38631 29.6493 6.86913 33.1321C10.352 36.6149 15.0757 38.5716 20.0011 38.5716Z" stroke="black" stroke-width="2" stroke-linecap="round" stroke-linejoin="round"/>
<path d="M10.5703 22.8571C11.9989 27.9999 17.7132 31.1428 22.856 29.7142C25.9989 28.5714 28.5703 25.9999 29.4275 22.8571M13.5703 15.7142C13.3809 15.7142 13.1992 15.639 13.0652 15.505C12.9313 15.3711 12.856 15.1894 12.856 14.9999C12.856 14.8105 12.9313 14.6288 13.0652 14.4949C13.1992 14.3609 13.3809 14.2856 13.5703 14.2856C13.7598 14.2856 13.9414 14.3609 14.0754 14.4949C14.2093 14.6288 14.2846 14.8105 14.2846 14.9999C14.2846 15.1894 14.2093 15.3711 14.0754 15.505C13.9414 15.639 13.7598 15.7142 13.5703 15.7142ZM26.4275 15.7142C26.238 15.7142 26.0563 15.639 25.9224 15.505C25.7884 15.3711 25.7132 15.1894 25.7132 14.9999C25.7132 14.8105 25.7884 14.6288 25.9224 14.4949C26.0563 14.3609 26.238 14.2856 26.4275 14.2856C26.6169 14.2856 26.7986 14.3609 26.9325 14.4949C27.0665 14.6288 27.1417 14.8105 27.1417 14.9999C27.1417 15.1894 27.0665 15.3711 26.9325 15.505C26.7986 15.639 26.6169 15.7142 26.4275 15.7142Z" stroke="black" stroke-width="2" stroke-linecap="round" stroke-linejoin="round"/>
</g>
<defs>
<clipPath id="clip0_3713_2092">
<rect width="40" height="40" fill="white"/>
</clipPath>
</defs>
</svg>
