<svg width="40" height="40" viewBox="0 0 40 40" fill="none" xmlns="http://www.w3.org/2000/svg">
<g clip-path="url(#clip0_3713_2114)">
<path d="M27.55 29.4376L27.9463 29.8339C28.6428 30.5304 28.9901 30.8777 29.4111 30.8532C29.832 30.8305 30.1396 30.4474 30.755 29.6773L33.2125 26.6063M27.8727 12.2802V15.2813M27.8727 12.2802C27.8727 10.857 29.0694 9.70371 30.5436 9.70371C32.0158 9.70371 33.2125 10.857 33.2125 12.2783V15.2813M27.8727 12.2802V7.12915C27.8727 5.70786 26.6779 4.5546 25.2038 4.5546C23.7297 4.5546 22.533 5.70597 22.533 7.12915M22.533 7.12915V15.2813M22.533 7.12915V3.69956C22.533 2.27638 21.3401 1.125 19.8641 1.125C18.388 1.125 17.1951 2.27638 17.1951 3.69956V8.84489M17.1951 8.84489C17.1951 7.4236 15.9984 6.27034 14.5243 6.27034C13.0521 6.27034 11.8554 7.42172 11.8554 8.84489V21.2024C11.8554 21.9876 10.8493 22.3594 10.302 21.7781L5.97957 17.1745C5.61212 16.7486 5.11959 16.4496 4.57221 16.3201C4.02484 16.1907 3.45055 16.2373 2.93125 16.4534C1.02865 17.2405 0.581307 20.017 1.81762 21.6176C3.9354 24.3583 6.10226 28.0974 7.85386 31.3949C10.2321 35.874 14.9226 38.8751 20.1359 38.8751M17.1951 8.84489V15.2813M21.8875 26.5195V27.2481C21.8875 29.5168 21.8875 30.6512 22.1668 31.6894C22.5158 32.977 23.1727 34.1605 24.0807 35.1378C24.8169 35.9344 25.7908 36.5535 27.7368 37.7936C28.607 38.3485 29.043 38.6259 29.5073 38.7562C30.0792 38.9147 30.6851 38.9147 31.257 38.7562C31.7195 38.6259 32.1555 38.3485 33.0256 37.7936C34.9716 36.5535 35.9456 35.9344 36.6817 35.1378C37.5898 34.1605 38.2466 32.977 38.5956 31.6894C38.875 30.6512 38.875 29.5187 38.875 27.2481V26.5195C38.875 25.1076 38.875 24.4017 38.607 23.8053C38.4388 23.4371 38.2025 23.1041 37.9105 22.8238C37.4329 22.3708 36.7553 22.1216 35.4001 21.6252L32.6179 20.6059C31.5118 20.202 30.9588 20 30.3812 20C29.8037 20 29.2506 20.202 28.1445 20.6078L25.3624 21.6271C24.0071 22.1216 23.3295 22.3689 22.852 22.8238C22.5593 23.1039 22.3223 23.4369 22.1536 23.8053C21.8875 24.4017 21.8875 25.1076 21.8875 26.5195Z" stroke="black" stroke-width="2" stroke-linecap="round" stroke-linejoin="round"/>
</g>
<defs>
<clipPath id="clip0_3713_2114">
<rect width="40" height="40" fill="white"/>
</clipPath>
</defs>
</svg>
