<svg width="146" height="101" viewBox="0 0 146 101" fill="none" xmlns="http://www.w3.org/2000/svg">
<g opacity="0.6" clip-path="url(#clip0_3541_4857)">
<path fill-rule="evenodd" clip-rule="evenodd" d="M73.006 0.000244141C73.7919 0.000244141 74.5696 0.0330945 75.3389 0.0942113L44.8239 37.3159C39.8391 18.6714 53.6688 0.000244141 73.006 0.000244141ZM88.7372 4.65659L45.9341 40.6582C46.1845 41.2854 46.4561 41.9027 46.7472 42.5078L95.5691 10.8057C93.6269 8.41222 91.3212 6.33424 88.7372 4.65659ZM101.512 23.1643L48.1486 45.0846C48.5068 45.6721 48.8847 46.2458 49.2814 46.8051L102.063 32.4472C102.359 29.3432 102.176 26.211 101.512 23.1643ZM97.2352 46.074C86.7596 61.8222 64.2983 63.5518 51.5924 49.6676L97.2352 46.074Z" fill="#111111"/>
<path d="M0 84.7524L5.18288 83.6707C5.21429 85.8978 6.9105 86.5978 8.63813 86.5978C10.2715 86.5978 11.2139 85.9933 11.2139 85.007C11.2139 81.6662 0.565405 83.1934 0.565405 75.5575C0.565405 71.3578 3.76936 69.0988 8.5753 69.0988C13.287 69.0988 16.3025 71.326 16.3025 74.5394V74.7939L11.1196 75.8757C11.0882 75.0166 10.8997 73.5213 8.44966 73.5213C6.75344 73.5213 5.90534 74.2212 5.90534 75.1757C5.90534 78.6437 16.5538 76.8302 16.5538 84.4343C16.5538 88.2522 13.8838 91.0202 8.5753 91.0202C3.07831 91.0202 0 88.0931 0 85.0388V84.7524ZM19.9462 85.7387V79.3118H17.8102V75.7166H20.009L20.2917 71.6441H24.8464V75.7166H28.867V79.3118H24.8464V85.7387C24.8464 86.4705 25.0663 86.9159 25.6945 86.9159C26.4798 86.9159 26.6368 86.0251 26.6997 85.1342L30.2806 86.4069C29.6523 88.9203 28.6786 90.893 25.0977 90.893C21.2027 90.893 19.9462 88.3795 19.9462 85.7387ZM38.8244 91.0202C32.8877 91.0202 31.0972 87.2977 31.0972 83.0343C31.0972 78.8664 32.7935 75.2712 38.7302 75.2712C44.7926 75.2712 46.3946 78.9937 46.3946 83.098C46.3946 87.4568 44.6041 91.0202 38.8244 91.0202ZM38.7616 87.3295C40.8976 87.3295 41.3059 85.3251 41.3059 83.1616C41.3059 80.9981 40.8976 78.9619 38.7302 78.9619C36.5942 78.9619 36.1859 80.9981 36.1859 83.098C36.1859 85.2297 36.5942 87.3295 38.7616 87.3295ZM48.3735 90.5748V86.9796H50.0383V79.3118H47.9023V75.7166H54.5929V78.3892C54.9699 77.371 56.1949 75.2712 59.4617 75.2712C61.6291 75.2712 64.142 76.162 64.142 80.8072V86.9796H65.8068V90.5748H57.8911V86.9796H59.2418V82.0799C59.2418 80.33 58.8335 79.4709 57.8283 79.4709C56.0693 79.4709 55.1898 81.6981 54.9385 82.5889V86.9796H56.2892V90.5748H48.3735ZM77.272 85.8342L81.5753 86.5978C80.7586 89.3658 78.8111 91.0202 74.8847 91.0202C69.9845 91.0202 67.1575 88.4431 67.1575 83.3207C67.1575 79.1846 68.9794 75.2712 74.6648 75.2712C79.2823 75.2712 81.5753 77.8483 81.5753 82.6525V84.2752H72.2775C72.4032 86.4069 73 87.3295 75.0417 87.3295C76.2982 87.3295 77.0521 86.9796 77.272 85.8342ZM72.3404 81.2526H76.4239V81.2208C76.4239 79.4709 75.7642 78.8028 74.4763 78.8028C73.2827 78.8028 72.5917 79.3755 72.3404 81.2526ZM99.1029 90.5748L98.6317 88.634C97.4695 90.1294 95.7732 91.0202 93.1347 91.0202C86.821 91.0202 83.3972 86.5659 83.3972 79.9482C83.3972 73.2986 86.8838 69.0988 93.8886 69.0988C99.5426 69.0988 102.307 71.9305 102.307 74.7621C102.307 74.953 102.307 75.1757 102.275 75.3666L97.0925 76.4484V76.0984C97.0925 74.444 95.9931 73.5213 93.7943 73.5213C89.4282 73.5213 88.957 76.7029 88.957 79.8209C88.957 84.0525 90.025 86.5978 93.8886 86.5978C95.3335 86.5978 97.3124 86.1523 97.3124 84.8479V83.2889H93.8572V79.5982H103.815V83.2889H102.275V90.5748H99.1029ZM105.668 90.5748V86.9796H107.333V79.3118H105.197V75.7166H111.887V78.421C112.578 76.7347 113.803 75.2712 115.782 75.2712C117.981 75.2712 118.672 76.3847 118.672 76.3847L116.693 81.0935C116.693 81.0935 116.222 80.0436 114.777 80.0436C113.458 80.0436 112.704 81.2844 112.233 82.6207V86.9796H113.898V90.5748H105.668ZM119.677 90.5748V86.9796H121.342V79.3118H119.206V75.7166H126.242V86.9796H127.907V90.5748H119.677ZM120.525 70.5306C120.525 68.9079 121.845 67.6035 123.447 67.6035C125.08 67.6035 126.368 68.9079 126.368 70.5306C126.368 72.1532 125.08 73.4895 123.447 73.4895C121.845 73.4895 120.525 72.1532 120.525 70.5306ZM140.346 90.5748L140.158 88.5704C139.435 89.7476 138.304 91.0202 135.854 91.0202C130.923 91.0202 129.352 86.725 129.352 83.0662C129.352 78.421 131.991 75.2712 136.137 75.2712C137.802 75.2712 138.744 75.812 139.435 76.7665V71.326H137.456V67.7307H144.335V86.9796H146V90.5748H140.346ZM136.859 87.3295C138.618 87.3295 139.435 85.9933 139.435 82.9389C139.435 80.7754 139.027 78.9619 136.922 78.9619C135.195 78.9619 134.441 80.2027 134.441 83.2252C134.441 86.0251 135.1 87.3295 136.859 87.3295Z" fill="#111111"/>
<path d="M34.0353 101L32.454 101C32.3599 101 32.2807 100.968 32.2164 100.903C32.152 100.837 32.1199 100.76 32.1199 100.669V95.3981C32.1199 95.3079 32.152 95.2302 32.2164 95.165C32.2807 95.0999 32.3599 95.0673 32.454 95.0673H33.5379C33.7259 95.0673 33.9041 95.1036 34.0724 95.1763C34.2407 95.249 34.3867 95.348 34.5104 95.4734C34.6341 95.5987 34.7319 95.7466 34.8036 95.917C34.8754 96.0875 34.9113 96.2679 34.9113 96.4584C34.9113 96.7592 34.8222 97.0349 34.644 97.2856C34.8371 97.3508 35.0128 97.4397 35.1711 97.5525C35.3295 97.6653 35.4656 97.7994 35.5794 97.9548C35.6933 98.1102 35.7824 98.2819 35.8467 98.4699C35.9111 98.6579 35.9432 98.8572 35.9432 99.0677C35.9432 99.3334 35.8937 99.5841 35.7947 99.8197C35.6958 100.055 35.5597 100.261 35.3864 100.436C35.2132 100.612 35.0103 100.75 34.7777 100.85C34.545 100.95 34.2976 101 34.0353 101ZM33.5379 95.729H32.7806V97.1803H33.6121C33.6913 97.1803 33.7692 97.159 33.8459 97.1164C33.9227 97.0738 33.9907 97.0186 34.0501 96.9509C34.1095 96.8833 34.1578 96.8068 34.1949 96.7216C34.232 96.6364 34.2506 96.5486 34.2506 96.4584C34.2506 96.3582 34.232 96.2642 34.1949 96.1764C34.1578 96.0887 34.107 96.011 34.0427 95.9433C33.9783 95.8756 33.9029 95.823 33.8162 95.7854C33.7296 95.7478 33.6368 95.729 33.5379 95.729ZM34.0353 97.8495L32.7806 97.8495V100.331H34.0353C34.2085 100.331 34.3706 100.298 34.5215 100.233C34.6725 100.168 34.8049 100.078 34.9187 99.9626C35.0325 99.8473 35.1216 99.7132 35.186 99.5602C35.2503 99.4073 35.2825 99.2432 35.2825 99.0677C35.2825 98.8922 35.2491 98.7293 35.1823 98.5789C35.1154 98.4285 35.0264 98.2995 34.915 98.1917C34.8036 98.0839 34.6712 97.9999 34.5178 97.9398C34.3644 97.8796 34.2035 97.8495 34.0353 97.8495ZM46.1289 101C45.8171 101 45.5251 100.94 45.2528 100.82C44.9806 100.699 44.7418 100.537 44.5364 100.331C44.3311 100.125 44.169 99.8836 44.0502 99.6054C43.9314 99.3271 43.872 99.0301 43.872 98.7143V95.3981C43.872 95.3079 43.9042 95.2302 43.9685 95.165C44.0328 95.0998 44.112 95.0673 44.2061 95.0673C44.2952 95.0673 44.3719 95.0998 44.4362 95.165C44.5006 95.2302 44.5327 95.3079 44.5327 95.3981V98.7143C44.5327 98.9399 44.5748 99.1504 44.6589 99.3459C44.7431 99.5415 44.8569 99.7119 45.0004 99.8573C45.144 100.003 45.3135 100.118 45.509 100.203C45.7045 100.288 45.9111 100.331 46.1289 100.331C46.3516 100.331 46.5595 100.288 46.7525 100.203C46.9455 100.118 47.115 100.003 47.261 99.8573C47.407 99.7119 47.5221 99.5402 47.6062 99.3422C47.6904 99.1442 47.7324 98.9349 47.7324 98.7143V95.3981C47.7324 95.3079 47.7646 95.2302 47.829 95.165C47.8933 95.0998 47.97 95.0673 48.0591 95.0673C48.1531 95.0673 48.2323 95.0998 48.2967 95.165C48.361 95.2302 48.3932 95.3079 48.3932 95.3981V98.7143C48.3932 99.0301 48.3338 99.3271 48.215 99.6054C48.0962 99.8836 47.9341 100.125 47.7287 100.331C47.5233 100.537 47.2833 100.699 47.0086 100.82C46.7339 100.94 46.4407 101 46.1289 101ZM56.9827 101C56.8887 101 56.8095 100.968 56.7451 100.903C56.6808 100.837 56.6486 100.76 56.6486 100.669V95.3981C56.6486 95.3079 56.6808 95.2302 56.7451 95.165C56.8095 95.0999 56.8887 95.0673 56.9827 95.0673C57.0718 95.0673 57.1485 95.0999 57.2128 95.165C57.2772 95.2302 57.3093 95.3079 57.3093 95.3981V100.669C57.3093 100.76 57.2772 100.837 57.2128 100.903C57.1485 100.968 57.0718 101 56.9827 101ZM67.8736 101H65.8914C65.8023 101 65.7256 100.968 65.6613 100.903C65.5969 100.837 65.5648 100.76 65.5648 100.669V95.3981C65.5648 95.3029 65.5969 95.2239 65.6613 95.1613C65.7256 95.0986 65.8023 95.0673 65.8914 95.0673C65.9855 95.0673 66.0634 95.0986 66.1253 95.1613C66.1871 95.2239 66.2181 95.3029 66.2181 95.3981V100.339H67.8736C67.9677 100.339 68.0469 100.371 68.1112 100.436C68.1755 100.501 68.2077 100.579 68.2077 100.669C68.2077 100.76 68.1755 100.837 68.1112 100.903C68.0469 100.968 67.9677 101 67.8736 101ZM77.9628 101L76.1365 101C76.0771 101 76.0202 100.983 75.9657 100.948C75.9113 100.913 75.8717 100.867 75.847 100.812C75.8024 100.732 75.7975 100.642 75.8321 100.542V95.3981C75.8321 95.3079 75.8643 95.2302 75.9286 95.165C75.993 95.0998 76.0722 95.0673 76.1662 95.0673H77.9554C78.3463 95.0673 78.7027 95.1525 79.0244 95.3229C79.3461 95.4934 79.6208 95.7165 79.8485 95.9922C80.0761 96.2679 80.2519 96.5812 80.3756 96.9321C80.4993 97.283 80.5612 97.639 80.5612 97.9999C80.5612 98.4461 80.4857 98.8534 80.3347 99.2219C80.1838 99.5903 79.9858 99.9062 79.7408 100.169C79.4958 100.433 79.2174 100.637 78.9056 100.782C78.5938 100.928 78.2795 101 77.9628 101ZM77.9553 95.729L76.4928 95.729V100.339H77.9628C78.2449 100.339 78.5035 100.27 78.7386 100.132C78.9737 99.9939 79.1778 99.8147 79.3511 99.5941C79.5243 99.3735 79.6592 99.1229 79.7557 98.8421C79.8522 98.5614 79.9004 98.2807 79.9004 97.9999C79.9004 97.7142 79.8534 97.4347 79.7594 97.1615C79.6653 96.8882 79.5329 96.6451 79.3622 96.4321C79.1914 96.219 78.9861 96.0486 78.746 95.9207C78.5059 95.7929 78.2424 95.729 77.9553 95.729ZM91.5412 101L88.9873 101C88.8933 101 88.8141 100.968 88.7498 100.903C88.6854 100.837 88.6533 100.76 88.6533 100.669V100.654V100.639V95.3981C88.6533 95.3079 88.6854 95.2302 88.7498 95.165C88.8141 95.0999 88.8933 95.0673 88.9873 95.0673H91.5412C91.6352 95.0673 91.7144 95.0999 91.7788 95.165C91.8431 95.2302 91.8753 95.3079 91.8753 95.3981C91.8753 95.4934 91.8431 95.5723 91.7788 95.635C91.7144 95.6977 91.6352 95.729 91.5412 95.729H89.314V97.6465H91.1923C91.2813 97.6465 91.3581 97.6778 91.4224 97.7405C91.4867 97.8032 91.5189 97.8821 91.5189 97.9774C91.5189 98.0676 91.4867 98.1453 91.4224 98.2105C91.3581 98.2757 91.2813 98.3082 91.1923 98.3082H89.314V100.331H91.5412C91.6352 100.331 91.7144 100.364 91.7788 100.429C91.8431 100.494 91.8753 100.574 91.8753 100.669C91.8753 100.76 91.8431 100.837 91.7788 100.903C91.7144 100.968 91.6352 101 91.5412 101ZM101.341 98.391L101.252 98.3909L101.348 98.218L102.692 100.496C102.722 100.552 102.736 100.609 102.736 100.669C102.736 100.76 102.704 100.837 102.64 100.903C102.576 100.968 102.499 101 102.41 101C102.35 101 102.295 100.985 102.243 100.955C102.191 100.925 102.15 100.885 102.12 100.835L100.68 98.3909H100.361V100.669C100.361 100.76 100.329 100.837 100.264 100.903C100.2 100.968 100.123 101 100.034 101C99.9401 101 99.861 100.968 99.7966 100.903C99.7323 100.837 99.7001 100.76 99.7001 100.669V95.3981C99.7001 95.3079 99.7323 95.2302 99.7966 95.165C99.861 95.0998 99.9401 95.0673 100.034 95.0673H101.341C101.568 95.0673 101.783 95.1111 101.983 95.1989C102.183 95.2866 102.358 95.4056 102.506 95.556C102.655 95.7064 102.772 95.8819 102.859 96.0824C102.946 96.2829 102.989 96.4985 102.989 96.7291C102.989 96.9597 102.946 97.1753 102.859 97.3758C102.772 97.5763 102.655 97.7518 102.506 97.9022C102.358 98.0526 102.183 98.1716 101.983 98.2594C101.783 98.3471 101.568 98.391 101.341 98.391ZM101.341 95.729H100.361V97.7217H101.341C101.474 97.7217 101.602 97.6954 101.723 97.6428C101.844 97.5901 101.95 97.5187 102.039 97.4284C102.128 97.3382 102.198 97.2329 102.25 97.1126C102.302 96.9923 102.328 96.8645 102.328 96.7291C102.328 96.5938 102.302 96.4647 102.25 96.3419C102.198 96.219 102.128 96.1125 102.039 96.0223C101.95 95.932 101.844 95.8606 101.723 95.808C101.602 95.7553 101.474 95.729 101.341 95.729ZM112.232 101C112.004 101 111.791 100.956 111.593 100.869C111.395 100.781 111.222 100.662 111.074 100.511C110.925 100.361 110.808 100.186 110.721 99.9851C110.634 99.7846 110.591 99.569 110.591 99.3384C110.591 99.2432 110.623 99.163 110.688 99.0978C110.752 99.0326 110.831 99 110.925 99C111.014 99 111.091 99.0326 111.155 99.0978C111.22 99.163 111.252 99.2432 111.252 99.3384C111.252 99.4738 111.278 99.6016 111.33 99.7219C111.382 99.8422 111.452 99.9475 111.541 100.038C111.63 100.128 111.734 100.199 111.853 100.252C111.972 100.305 112.098 100.331 112.232 100.331C112.365 100.331 112.493 100.305 112.614 100.252C112.735 100.199 112.84 100.128 112.93 100.038C113.019 99.9475 113.089 99.8422 113.141 99.7219C113.193 99.6016 113.219 99.4738 113.219 99.3384C113.219 99.173 113.187 99.0364 113.123 98.9286C113.058 98.8208 112.969 98.7268 112.855 98.6466C112.801 98.6065 112.739 98.5702 112.67 98.5376C112.6 98.505 112.529 98.4712 112.454 98.4361C112.38 98.406 112.304 98.3759 112.224 98.3458C112.145 98.3158 112.063 98.2857 111.979 98.2556C111.816 98.1954 111.651 98.1278 111.486 98.0526C111.32 97.9774 111.171 97.8834 111.04 97.7706C110.909 97.6578 110.801 97.5174 110.717 97.3495C110.633 97.1816 110.591 96.9748 110.591 96.7291C110.591 96.4985 110.634 96.2829 110.721 96.0824C110.808 95.8819 110.925 95.7064 111.074 95.5561C111.222 95.4057 111.395 95.2866 111.593 95.1989C111.791 95.1111 112.004 95.0673 112.232 95.0673C112.459 95.0673 112.673 95.1111 112.874 95.1989C113.074 95.2866 113.249 95.4057 113.397 95.5561C113.546 95.7064 113.663 95.8819 113.75 96.0824C113.837 96.283 113.88 96.4985 113.88 96.7291C113.88 96.8194 113.848 96.8971 113.783 96.9622C113.719 97.0274 113.64 97.06 113.546 97.06C113.457 97.06 113.38 97.0274 113.316 96.9622C113.251 96.8971 113.219 96.8194 113.219 96.7291C113.219 96.5938 113.193 96.4647 113.141 96.3419C113.089 96.219 113.019 96.1125 112.93 96.0223C112.84 95.932 112.735 95.8606 112.614 95.808C112.493 95.7553 112.365 95.729 112.232 95.729C112.098 95.729 111.972 95.7553 111.853 95.808C111.734 95.8606 111.63 95.932 111.541 96.0223C111.452 96.1125 111.382 96.219 111.33 96.3419C111.278 96.4647 111.252 96.5938 111.252 96.7291C111.252 96.8795 111.283 97.0048 111.345 97.1051C111.406 97.2054 111.494 97.2931 111.608 97.3683C111.727 97.4435 111.861 97.5112 112.009 97.5713L112.247 97.6616L112.492 97.7518C112.655 97.8119 112.819 97.8809 112.985 97.9586C113.151 98.0363 113.3 98.134 113.431 98.2518C113.562 98.3697 113.67 98.5163 113.754 98.6917C113.838 98.8672 113.88 99.0828 113.88 99.3384C113.88 99.569 113.837 99.7846 113.75 99.9851C113.663 100.186 113.546 100.361 113.397 100.511C113.249 100.662 113.074 100.781 112.874 100.869C112.673 100.956 112.459 101 112.232 101Z" fill="#111111"/>
</g>
<defs>
<clipPath id="clip0_3541_4857">
<rect width="146" height="101" fill="white"/>
</clipPath>
</defs>
</svg>
